<svg id="Calque_1" data-name="Calque 1" xmlns="http://www.w3.org/2000/svg" viewBox="0 0 127.09 29.47"><defs><style>.cls-1{fill:#ff0f0f;}</style></defs><title>PCDL_filmde</title><path class="cls-1" d="M2203,1701.45l4.66,11.3h2.18l4.61-11.3h-3.28l-2.34,6.4-2.53-6.4H2203Zm14.38,3.57h-2.93v7.73h2.93V1705h0Zm-2.61-1.2a1.7,1.7,0,0,0,1.12.46,1.57,1.57,0,0,0,0-3.14,1.56,1.56,0,0,0-1.57,1.55,1.6,1.6,0,0,0,.45,1.12h0Zm12.1,3.86a4,4,0,0,0-.14-1.2,2.34,2.34,0,0,0-2.46-1.68,3.46,3.46,0,0,0-2.7,1.22l0-1h-3v7.73h2.94v-3.92a1.67,1.67,0,0,1,.58-1.39,1.12,1.12,0,0,1,.64-0.18,1.25,1.25,0,0,1,.64.16,1.55,1.55,0,0,1,.5,1.41v3.92h3v-5.07h0Zm7.14-2.45a5.08,5.08,0,0,0-2.06-.43,4,4,0,0,0-1,.1,4.48,4.48,0,0,0-1.44.62,4,4,0,0,0-1.71,3.46,4,4,0,0,0,1.39,3.14,4.57,4.57,0,0,0,4.77.38v-2.59a2.31,2.31,0,0,1-1.54.59,1.49,1.49,0,0,1-1.58-1.58,1.55,1.55,0,0,1,1.6-1.63,2.38,2.38,0,0,1,1.52.61l0-2.66h0Zm9.12,4.34a6.41,6.41,0,0,0-.26-2.11,4,4,0,0,0-1-1.58,4.39,4.39,0,0,0-3.1-1.1,4.52,4.52,0,0,0-3.54,1.44,4,4,0,0,0-.9,2.72,3.67,3.67,0,0,0,2.43,3.79,6.18,6.18,0,0,0,2,.29,4.26,4.26,0,0,0,4-2,3.34,3.34,0,0,0,.27-0.61h-3.09a1.25,1.25,0,0,1-1.22.69,1.58,1.58,0,0,1-1.58-1.46l6,0h0Zm-5.92-1.68c0.1-.19.13-0.26,0.19-0.37a1.58,1.58,0,0,1,2.61-.06,2.1,2.1,0,0,1,.19.43h-3Zm14.88-.21a4,4,0,0,0-.14-1.2,2.34,2.34,0,0,0-2.46-1.68,3.46,3.46,0,0,0-2.7,1.22l0-1h-3v7.73h2.94v-3.92a1.67,1.67,0,0,1,.58-1.39,1.12,1.12,0,0,1,.64-0.18,1.25,1.25,0,0,1,.64.16,1.55,1.55,0,0,1,.5,1.41v3.92h3v-5.07h0Zm1.65-4.72V1705h-1.09v2h1.09v5.78h2.91V1707h1.57v-2h-1.57V1703h-2.91Zm9.25-1.5v11.3h3V1709h1.46a6.29,6.29,0,0,0,2.18-.3,2.94,2.94,0,0,0,1.31-1,3.89,3.89,0,0,0,.72-2.43,4.37,4.37,0,0,0-.54-2.24,3.31,3.31,0,0,0-2.93-1.5,9.15,9.15,0,0,0-.94,0H2263Zm3,2.53h0.93a1.59,1.59,0,0,1,1.34.48,1.07,1.07,0,0,1,.24.7c0,1.28-1.49,1.2-1.66,1.2H2266V1704h0Zm10,0.78a4.56,4.56,0,0,0-4.32,2.38,4.65,4.65,0,0,0-.38,1.84,3.77,3.77,0,0,0,1.62,3.23,5.11,5.11,0,0,0,3,.78,5.38,5.38,0,0,0,2.9-.67,3.75,3.75,0,0,0,1.84-3.36A4,4,0,0,0,2278,1705a6.24,6.24,0,0,0-1.9-.27h0Zm0,2.45a1.5,1.5,0,0,1,1.49,1,1.72,1.72,0,0,1,.11.66,1.59,1.59,0,0,1-1,1.6,2.15,2.15,0,0,1-.64.11,1.69,1.69,0,0,1,0-3.38h0Zm5.52-2.19v4.18a4.9,4.9,0,0,0,.26,1.92,2.56,2.56,0,0,0,.67.93,4.39,4.39,0,0,0,3.06.94,5,5,0,0,0,3.22-.91,3,3,0,0,0,.94-1.73,7.79,7.79,0,0,0,.06-0.83V1705h-2.93v4a1.58,1.58,0,0,1-.46,1.41,1.34,1.34,0,0,1-.72.19,1.18,1.18,0,0,1-1.18-1.41V1705h-2.91Zm12.29,7.1a3.36,3.36,0,0,0,2.37.86,3.76,3.76,0,0,0,3.78-4.08,4.35,4.35,0,0,0-1.12-3.09,3.36,3.36,0,0,0-2.56-1,3.19,3.19,0,0,0-2.45,1l0-.75h-2.8v11h2.77v-3.92h0Zm1.52-4.82a1.68,1.68,0,0,1,.69.11,1.48,1.48,0,0,1,.93,1.46,1.53,1.53,0,0,1-1,1.5,2.16,2.16,0,0,1-.61.1,1.53,1.53,0,0,1-1.63-1.58,1.46,1.46,0,0,1,1.62-1.58h0Zm5.54-6.51v12h2.93v-12h-2.93Zm9.87,5a3.11,3.11,0,0,0-2.38-1,3.39,3.39,0,0,0-3,1.54,5,5,0,0,0-.7,2.62,3.92,3.92,0,0,0,1.41,3.3,3.44,3.44,0,0,0,2.18.74,3.6,3.6,0,0,0,2.46-.93l0,0.69h3V1705h-3l0,0.75h0Zm-1.36,1.49a1.45,1.45,0,0,1,1.49,1,2.1,2.1,0,0,1,.11.64,1.64,1.64,0,0,1-.93,1.57,1.75,1.75,0,0,1-.7.13,1.48,1.48,0,0,1-1.5-.88,1.88,1.88,0,0,1-.13-0.74,1.59,1.59,0,0,1,1-1.58,2,2,0,0,1,.66-0.1h0Zm11.7-2.21a4.32,4.32,0,0,0-.91-0.13,3.47,3.47,0,0,0-2.11.82l-0.3.24,0-1H2315v7.73h2.93v-3.47a2.05,2.05,0,0,1,.22-1.07,1.22,1.22,0,0,1,.35-0.42,2.19,2.19,0,0,1,1.17-.3,4.42,4.42,0,0,1,1.46.27v-2.7h0Zm6-4.27v4.72a3.46,3.46,0,0,0-2.29-.7,4,4,0,0,0-1.31.18,3.38,3.38,0,0,0-1.28.77,4.26,4.26,0,0,0-1.17,3.1,4,4,0,0,0,2,3.81,3.79,3.79,0,0,0,1.62.34,3.33,3.33,0,0,0,2.38-.91l0,0.67h2.93v-12h-2.91Zm-1.41,9.71a1.62,1.62,0,0,1,0-3.25,1.54,1.54,0,0,1,1.62,1.62,1.56,1.56,0,0,1-.93,1.49,1.78,1.78,0,0,1-.69.14h0Z" transform="translate(-2203 -1686.57)"/><path class="cls-1" d="M2232.36,1687.45h-3.2v7.17a6.37,6.37,0,0,0,.26,2,3.4,3.4,0,0,0,.91,1.31A5.49,5.49,0,0,0,2234,1699c1.68,0,3.46-.26,4.48-1.76a4.43,4.43,0,0,0,.72-2.62v-7.18H2236v6.66a2.73,2.73,0,0,1-.38,1.62,1.66,1.66,0,0,1-1.42.66,1.69,1.69,0,0,1-1.78-1.79c0-.16,0-0.32,0-0.48v-6.67h0Zm16.42,6.22a4,4,0,0,0-.14-1.2,2.34,2.34,0,0,0-2.46-1.68,3.46,3.46,0,0,0-2.7,1.22l0-1h-3v7.73h2.94v-3.92a1.67,1.67,0,0,1,.58-1.39,1.12,1.12,0,0,1,.64-0.18,1.25,1.25,0,0,1,.64.16,1.55,1.55,0,0,1,.5,1.41v3.92h3v-5.07h0ZM2263,1691H2260v7.73H2263V1691h0Zm-2.61-1.2a1.7,1.7,0,0,0,1.12.46,1.57,1.57,0,1,0,0-3.14,1.56,1.56,0,0,0-1.57,1.55,1.6,1.6,0,0,0,.45,1.12h0Zm-1-2.93a3.84,3.84,0,0,0-1.63-.32,3.26,3.26,0,0,0-1.09.14,2.7,2.7,0,0,0-1,.62,3.2,3.2,0,0,0-.85,2c0,0.22,0,.45,0,0.67v1h-1.26v2h1.26v5.78h2.91V1693h1.62v-2h-1.6v-0.9a1,1,0,0,1,.88-1.17,1.54,1.54,0,0,1,.83.26v-2.32h0Zm4.86-.1v12h2.93v-12h-2.93Zm17.46,6.9a4.6,4.6,0,0,0-.14-1.25,2.44,2.44,0,0,0-2.5-1.65,3.08,3.08,0,0,0-2.35.94c-0.13.14-.24,0.29-0.37,0.45a2.11,2.11,0,0,0-.43-0.67,2.8,2.8,0,0,0-2-.72,3.2,3.2,0,0,0-2.06.69,5.18,5.18,0,0,0-.48.51l0-1-2.94,0v7.74h2.91v-3.84a1.81,1.81,0,0,1,.54-1.54,1,1,0,0,1,.64-0.19c1.18,0,1.09,1.47,1.09,1.6v4h2.93v-3.84a1.71,1.71,0,0,1,.51-1.5,1,1,0,0,1,.64-0.22,0.94,0.94,0,0,1,.58.18,1.61,1.61,0,0,1,.51,1.36v4h2.91v-5.06h0Zm11.23-6.91v4.72a3.46,3.46,0,0,0-2.29-.7,4,4,0,0,0-1.31.18,3.38,3.38,0,0,0-1.28.77,4.26,4.26,0,0,0-1.17,3.1,4,4,0,0,0,2,3.81,3.8,3.8,0,0,0,1.62.34,3.33,3.33,0,0,0,2.38-.91l0,0.67h2.93v-12h-2.91Zm-1.41,9.71a1.62,1.62,0,0,1,0-3.25,1.54,1.54,0,0,1,1.62,1.62,1.56,1.56,0,0,1-.93,1.49,1.78,1.78,0,0,1-.69.14h0Zm14-.93a6.41,6.41,0,0,0-.26-2.11,4,4,0,0,0-1-1.58,4.39,4.39,0,0,0-3.1-1.1,4.52,4.52,0,0,0-3.54,1.44,4,4,0,0,0-.9,2.72,3.67,3.67,0,0,0,2.43,3.79,6.18,6.18,0,0,0,2,.29,4.26,4.26,0,0,0,4-2,3.34,3.34,0,0,0,.27-0.61h-3.09a1.25,1.25,0,0,1-1.22.69,1.58,1.58,0,0,1-1.58-1.46l6,0h0Zm-5.92-1.68c0.1-.19.13-0.26,0.19-0.37a1.58,1.58,0,0,1,2.61-.06,2.09,2.09,0,0,1,.19.43h-3Z" transform="translate(-2203 -1686.57)"/></svg>