<svg id="Calque_1" data-name="Calque 1" xmlns="http://www.w3.org/2000/svg" viewBox="0 0 392.27 364.79"><defs><style>.cls-1{fill:#ff0f0f;}</style></defs><title>PCDL_titre</title><path class="cls-1" d="M2119.32,1805.89h-13.26V1881h48.84V1870.1h-35.58v-64.21h0Zm99.79,37.58c0,17.58-11.16,28.53-24.95,28.53s-24.95-10.95-24.95-28.53,11.16-28.53,24.95-28.53,24.95,10.95,24.95,28.53h0Zm14.32,0c0-23.16-17.16-39.9-39.26-39.9s-39.26,16.74-39.26,39.9,17.16,39.89,39.26,39.89,39.26-16.74,39.26-39.89h0Zm4.95-37.58v50.95c0,18.32,13.89,26.53,31.47,26.53s31.47-8.21,31.47-26.53v-50.95h-13.26v50.32c0,10.32-8.63,15.79-18.21,15.79s-18.21-5.47-18.21-15.79v-50.32h-13.26Zm86.95,10.95h13.16c12.95,0,16.95,4.42,16.95,12.74s-4,12.63-16.95,12.63h-13.16v-25.37h0Zm0,64.21v-27.9h12.42c22.21,0,31.58-8.32,31.58-23.69,0-14.32-7.9-23.58-27.16-23.58h-30.11V1881h13.26Zm46.57-24.63c0.32,18.95,13.16,26.95,30.74,26.95,17.05,0,31.16-8,31.16-24.74,0-30.63-45.9-16.84-45.9-33.48,0-5.58,4.63-10.21,15.26-10.21,8.74,0,15.9,3.79,15.9,14.42h13.89c-1.16-19.79-15.79-25.79-30.32-25.79s-28.63,6.74-28.63,22.95c0,29.79,45.9,15.37,45.9,33.79,0,8.63-9.47,11.47-16.53,11.69-9.58-.21-17.58-4.84-17.58-15.58h-13.9Z" transform="translate(-2071 -1518.57)"/><path class="cls-1" d="M2175,1786h33.69c18.42,0,34.63-11.58,34.63-37.58s-16.21-37.58-34.63-37.58H2175V1786h0Zm13.26-64.21h13.9c16.95,0,26.95,9.16,26.84,26.63,0.11,17.47-9.9,26.63-26.84,26.63h-13.9v-53.26h0ZM2299.41,1786V1775.1h-35.9v-22.84h30.21v-10.95h-30.21v-19.48h35.16v-10.95h-48.42V1786h49.16Zm3.34-24.63c0.32,18.95,13.16,26.95,30.74,26.95,17.05,0,31.16-8,31.16-24.74,0-30.63-45.89-16.84-45.89-33.48,0-5.58,4.63-10.21,15.26-10.21,8.74,0,15.89,3.79,15.89,14.42h13.89c-1.16-19.79-15.79-25.79-30.32-25.79s-28.63,6.74-28.63,22.95c0,29.79,45.9,15.37,45.9,33.79,0,8.63-9.47,11.47-16.53,11.68-9.58-.21-17.58-4.84-17.58-15.58h-13.9Z" transform="translate(-2071 -1518.57)"/><path class="cls-1" d="M2141.74,1639c-3.79-15.26-16.42-25.47-31.68-25.47-22.11,0-39.05,16.74-39.05,39.9s16.95,39.89,39.05,39.89c16.32,0,30.53-11.37,32.95-28h-13.89c-2.95,10.74-8,16.63-18.95,16.63-12.42,0-24.84-10.53-24.84-28.53,0-18.63,12.42-28.42,23.58-28.53,8.84-.11,15.58,4.74,18.63,14.11h14.21Zm69.81,14.42c0,17.58-11.16,28.53-24.95,28.53s-24.95-10.95-24.95-28.53,11.16-28.53,24.95-28.53,24.95,10.95,24.95,28.53h0Zm14.32,0c0-23.16-17.16-39.9-39.26-39.9s-39.26,16.74-39.26,39.9,17.16,39.89,39.26,39.89,39.26-16.74,39.26-39.89h0Zm73.37,37.58h13.26v-75.16h-20.21L2271.87,1671l-20-55.16h-20.42V1691h13.26v-59.37h0.21l21.47,59.37h10.95l21.68-59.37h0.21V1691h0Zm94.35,0h13.26v-75.16h-20.21L2366.22,1671l-20-55.16h-20.42V1691h13.26v-59.37h0.21l21.47,59.37h10.95l21.68-59.37h0.21V1691h0Zm69.69,0V1680.1h-35.9v-22.84h30.21v-10.95h-30.21v-19.48h35.16v-10.95h-48.42V1691h49.16Z" transform="translate(-2071 -1518.57)"/><path class="cls-1" d="M2191.46,1531.83h13.16c12.95,0,16.95,4.42,16.95,12.74s-4,12.63-16.95,12.63h-13.16v-25.37h0Zm0,64.21v-27.89h12.42c22.21,0,31.58-8.32,31.58-23.68,0-14.32-7.9-23.58-27.16-23.58h-30.11V1596h13.26Zm36.7,0h14.74l6.53-16.95h30.32L2286,1596h14.74l-28.95-75.16h-13.47L2228.16,1596h0Zm36.63-58.53H2265l10.63,30.63h-22l11.16-30.63h0Zm34.34,33.9c0.32,18.95,13.16,26.95,30.74,26.95,17.05,0,31.16-8,31.16-24.74,0-30.63-45.9-16.84-45.9-33.47,0-5.58,4.63-10.21,15.26-10.21,8.74,0,15.9,3.79,15.9,14.42h13.89c-1.16-19.79-15.79-25.79-30.32-25.79s-28.63,6.74-28.63,22.95c0,29.79,45.9,15.37,45.9,33.79,0,8.63-9.47,11.47-16.53,11.68-9.58-.21-17.58-4.84-17.58-15.58h-13.9Z" transform="translate(-2071 -1518.57)"/></svg>