<svg id="Calque_1" data-name="Calque 1" xmlns="http://www.w3.org/2000/svg" viewBox="0 0 590.46 99.85"><defs><style>.cls-1{fill:#ffe807;}</style></defs><title>mort-logo</title><path class="cls-1" d="M2.34,18H24l6.78,44.38L37,18H58.93v82.22H46.35V30.43L34.76,100.21H27.24L14.92,30.43v69.77H2.34V18Z" transform="translate(-2.34 -1.59)"/><path class="cls-1" d="M98.37,25.62c2.22,4.44,2.71,10.23,2.71,33.41,0,25.76-.49,30.57-3.82,35.26-3.08,4.68-8.63,7.15-15.66,7.15-8,0-13.81-3.08-16.77-8.88-2.22-4.44-2.71-10.11-2.71-34.15,0-24.9.49-30,3.7-34.64s8.63-7,16-7C89.62,16.75,95.54,20,98.37,25.62Zm-23.3,8.26c-0.25,2.34-.37,10-0.37,25.39,0,17.26.12,23.55,0.49,25.89,0.74,3.58,3,5.55,6.29,5.55,3.94,0,6-2.1,6.66-6.41,0.25-2.1.37-9.86,0.37-23.05,0-20.59-.12-25.76-0.49-28.23-0.74-3.58-3-5.55-6.41-5.55C77.91,27.47,75.69,29.69,75.07,33.88Z" transform="translate(-2.34 -1.59)"/><path class="cls-1" d="M104.16,18h16.27c7.64,0,10.36.37,13.56,2,5.55,2.71,7.89,8.38,7.89,19,0,9.74-2.1,14.42-7.64,17.26,5.67,2.71,7.64,5.79,7.64,11.83V92.44c0,3.7.37,5.79,1.48,7.77H130a25.88,25.88,0,0,1-.74-6.53V76.54c0-11.46-1.73-13.93-9.49-13.93h-3.08v37.6H104.16V18Zm15.66,34.39c7.52,0,9.49-2.47,9.49-11.83,0-9.62-1.6-11.46-10.11-11.46h-2.47v23.3h3.08Z" transform="translate(-2.34 -1.59)"/><path class="cls-1" d="M170,100.21H157.41V29.08H143.48V18H184V29.08H170v71.13Z" transform="translate(-2.34 -1.59)"/><path class="cls-1" d="M217.08,78.63l-3,21.57H200.93L214.49,18h18L246,100.21H232.85l-3-21.57H217.08Zm8.51-77,1.85,13.19H220L211.77,1.59h13.81Zm-2.1,31.68-4.81,34.27h9.62Z" transform="translate(-2.34 -1.59)"/><path class="cls-1" d="M276.12,71.73c0.12,8.14.25,10.6,0.62,12.82,0.86,3.95,3.08,6.16,6.41,6.16,4.07,0,6.78-3.45,6.78-8.63,0-6.16-2.46-10.36-11.22-18.86-7-6.9-9-9.25-11-12.33a25.86,25.86,0,0,1-3.82-14.05c0-12.57,7.4-20.09,19.6-20.09,7.52,0,13.68,3.08,16.15,8.14,1.73,3.7,2,5.79,2.1,19.6H289.19c0-10.36,0-11-.74-12.94a5.55,5.55,0,0,0-5.55-4.07c-3.95,0-6.66,3.45-6.66,8.38,0,5.42,2.22,8.88,11.34,17.88,11.71,11.71,15.16,17.88,15.16,27.37,0,13.07-7,20.34-19.48,20.34-9.86,0-16-4.07-18.37-12.08-1-3.7-1.36-8.38-1.36-17.63h12.57Z" transform="translate(-2.34 -1.59)"/><path class="cls-1" d="M319.14,78.63l-3,21.57H303L316.55,18h18l13.56,82.22H334.92l-3-21.57H319.14Zm6.41-45.37-4.81,34.27h9.62Z" transform="translate(-2.34 -1.59)"/><path class="cls-1" d="M350.08,18h16.27c7.64,0,10.36.37,13.56,2,5.55,2.71,7.89,8.38,7.89,19,0,9.74-2.1,14.42-7.64,17.26C385.83,58.91,387.8,62,387.8,68V92.44c0,3.7.37,5.79,1.48,7.77H376a25.88,25.88,0,0,1-.74-6.53V76.54c0-11.46-1.73-13.93-9.49-13.93h-3.08v37.6H350.08V18Zm15.66,34.39c7.52,0,9.49-2.47,9.49-11.83,0-9.62-1.6-11.46-10.11-11.46h-2.47v23.3h3.08Z" transform="translate(-2.34 -1.59)"/><path class="cls-1" d="M406.54,78.63l-3,21.57H390.39L404,18h18l13.56,82.22H422.32l-3-21.57H406.54Zm6.41-45.37-4.81,34.27h9.62Z" transform="translate(-2.34 -1.59)"/><path class="cls-1" d="M474.83,18V72.84c-0.12,16.15-.25,17.26-2.83,21-3.45,4.93-9.37,7.64-16.64,7.64-8,0-14.42-3.33-17.5-8.88-1.85-3.45-2.1-6-2.1-19.72V71.48h12.57v1.6c0,10.6,0,10.6.49,12.45,1,3.33,3.33,5.18,6.53,5.18s5.79-2.1,6.53-5.79c0.37-1.73.37-1.85,0.37-11.83V18h12.57Z" transform="translate(-2.34 -1.59)"/><path class="cls-1" d="M512.55,29.08H491V51.88h19.85V63H491V89.11h21.57v11.09H478.4V18h34.15V29.08Z" transform="translate(-2.34 -1.59)"/><path class="cls-1" d="M513.78,18H527l6.66,62.87L540.16,18h13.07l-11,82.22H525.12Z" transform="translate(-2.34 -1.59)"/><path class="cls-1" d="M590.09,25.62c2.22,4.44,2.71,10.23,2.71,33.41,0,25.76-.49,30.57-3.82,35.26-3.08,4.68-8.63,7.15-15.66,7.15-8,0-13.81-3.08-16.77-8.88-2.22-4.44-2.71-10.11-2.71-34.15,0-24.9.49-30,3.7-34.64s8.63-7,16-7C581.33,16.75,587.25,20,590.09,25.62Zm-23.3,8.26c-0.25,2.34-.37,10-0.37,25.39,0,17.26.12,23.55,0.49,25.89,0.74,3.58,3,5.55,6.29,5.55,3.95,0,6-2.1,6.66-6.41,0.25-2.1.37-9.86,0.37-23.05,0-20.59-.12-25.76-0.49-28.23-0.74-3.58-3-5.55-6.41-5.55C569.62,27.47,567.4,29.69,566.79,33.88Z" transform="translate(-2.34 -1.59)"/></svg>