<?xml version="1.0" encoding="utf-8"?>
<!-- Generator: Adobe Illustrator 19.2.1, SVG Export Plug-In . SVG Version: 6.00 Build 0)  -->
<svg version="1.1" id="Calque_1" xmlns="http://www.w3.org/2000/svg" xmlns:xlink="http://www.w3.org/1999/xlink" x="0px" y="0px"
	 viewBox="0 0 578.9 75.4" style="enable-background:new 0 0 578.9 75.4;" xml:space="preserve">
<style type="text/css">
	.st0{fill:#FFFFFF;}
</style>
<title>villeperdue-title</title>
<path class="st0" d="M18.6,73.9L0,0h18.8l10.7,50.9L40.2,0h16L37.5,73.9H18.6L18.6,73.9z"/>
<path class="st0" d="M60.6,0h19.2v73.9H60.6V0z"/>
<path class="st0" d="M89.8,0h19v59.8h25.1v14.1H89.8V0z"/>
<path class="st0" d="M138.4,0h19v59.8h25.1v14.1h-44.1V0z"/>
<path class="st0" d="M187.1,0h46.4v14.1h-27.4v14.4h18.2v14.1h-18.2v17.2h27.4v14.1h-46.4V0z"/>
<path class="st0" d="M240.3,0h25.5c18.4,0,27.5,7.5,27.5,22.1c0,13.8-9.3,22.1-25.9,22.1c-2.7,0-5.4-0.2-8.1-0.5v30.3h-19L240.3,0
	L240.3,0z M259.3,30.8h2.3c8.5,0,12.3-2.3,12.3-8.7s-3.8-8.7-12.3-8.7h-2.3L259.3,30.8L259.3,30.8z"/>
<path class="st0" d="M298.8,0h46.4v14.1h-27.4v14.4H336v14.1h-18.2v17.2h27.4v14.1h-46.4V0z"/>
<path class="st0" d="M352,0h27.4c16.2,0,25.4,7.8,25.4,20.4c0,8.7-4.1,14.8-12.1,17.6l12.5,35.9h-18.9l-9.1-32.4H371v32.4h-19L352,0
	L352,0z M371,29.9h3.1c8.1,0,11.8-2,11.8-8.1s-3.7-8.1-11.8-8.1H371V29.9L371,29.9z"/>
<path class="st0" d="M433.4,0c20.5,0,31.5,12.9,31.5,37s-11,36.9-31.5,36.9h-22.2V0H433.4z M430.2,60.5h2c9.9,0,12.6-7,12.6-23.4
	s-2.8-23.5-12.6-23.5h-2V60.5L430.2,60.5z"/>
<path class="st0" d="M490.9,51.1c0,7,2.2,10.2,8,10.2s7.9-3.2,7.9-10.2V0h15.9v53.8c0,13.2-9.2,21.6-25.3,21.6
	c-16.1,0-25.4-8.4-25.4-21.6V0h19L490.9,51.1L490.9,51.1z"/>
<path class="st0" d="M532.5,0h46.4v14.1h-27.4v14.4h18.2v14.1h-18.2v17.2h27.4v14.1h-46.3V0z"/>
</svg>
