<svg id="Calque_1" data-name="Calque 1" xmlns="http://www.w3.org/2000/svg" viewBox="0 0 202.75 40.49"><defs><style>.cls-1{fill:#fff;}</style></defs><title>villeperdue-realisateur</title><path class="cls-1" d="M57.81,15.88c-4.46,0-6.31-1.79-6.31-5.91V0.18h4.32V9.59c0,2.13.48,3.08,2.47,3.08s2.47-.94,2.47-3.08V0.18h3.38V10C64.15,14.09,62.28,15.88,57.81,15.88Z"/><path class="cls-1" d="M66.18,4.7H69.9V6.27a5.86,5.86,0,0,1,3.74-1.71c2,0,2.79,1.17,2.79,3.58V15.5H72.69V9.09c0-1.31-.14-1.93-1-1.93a3,3,0,0,0-1.75.9V15.5H66.18V4.7Z"/><path class="cls-1" d="M86.12,7.08H84.65V4.7H86.2c0-.34,0-0.68,0-1C86.18,1,86.94,0,89.44,0a9.32,9.32,0,0,1,2.13.26V2.61a2.83,2.83,0,0,0-.56,0c-0.74,0-1.11.26-1.11,0.82V4.7h1.67V7.08H89.82V15.5h-3.7V7.08Zm6.61-6.9h3.64v3.1H92.73V0.18Zm0,4.52h3.64V15.5H92.73V4.7Z"/><path class="cls-1" d="M98.36,0.18h3.84V15.5H98.36V0.18Z"/><path class="cls-1" d="M104.09,4.7h3.66V6.27a5.82,5.82,0,0,1,3.74-1.71,2.54,2.54,0,0,1,2.61,1.71,5.86,5.86,0,0,1,3.74-1.71c2,0,2.79,1.17,2.79,3.58V15.5H117V9.09c0-1.31-.14-1.93-1-1.93a3,3,0,0,0-1.75.9V15.5h-3.62V9.09c0-1.31-.14-1.93-1-1.93a3,3,0,0,0-1.75.9V15.5h-3.66V4.7Z"/><path class="cls-1" d="M140.46,15.5h-3.94V14.43a4.74,4.74,0,0,1-3.12,1.31c-2.41,0-4.08-2.09-4.08-5.55s1.75-5.63,4.16-5.63a4.13,4.13,0,0,1,3,1.37V0.18h3.78V14.37A4.12,4.12,0,0,0,140.46,15.5Zm-3.94-7.84A2,2,0,0,0,135,6.84c-1.27,0-1.75,1.07-1.75,3.32s0.46,3.22,1.69,3.22a2,2,0,0,0,1.53-.76V7.66Z"/><path class="cls-1" d="M147.37,15.84c-3.48,0-5.71-2.19-5.71-5.61a5.39,5.39,0,0,1,5.71-5.77c3.36,0,5.51,2.17,5.51,5.79,0,0.2,0,.4,0,0.62h-7.22v0.06A2.14,2.14,0,0,0,148,13.29a2.55,2.55,0,0,0,2.41-1.51l2.41,1.11A5.69,5.69,0,0,1,147.37,15.84Zm1.71-7c0-1.35-.64-2.11-1.71-2.11s-1.61.72-1.65,2.11h3.36Z"/><path class="cls-1" d="M0.32,33.45a6.68,6.68,0,0,0,1.21.14c1.35,0,1.57-.6,1.57-2.17V21.49H7.42V32.16c0,1.55,0,2.73-.92,3.76s-2.07,1.27-3.84,1.27A10.71,10.71,0,0,1,0,36.89Z"/><path class="cls-1" d="M19.64,35.68a3.64,3.64,0,0,0,.16,1.13H15.92V35.34A5.91,5.91,0,0,1,12.16,37c-2,0-2.77-1.17-2.77-3.58V26h3.72v6.51c0,1.31.16,1.93,1.07,1.93a3,3,0,0,0,1.75-.9V26h3.72v9.67Z"/><path class="cls-1" d="M21.59,21.49h3.84V36.81H21.59V21.49Z"/><path class="cls-1" d="M27.32,21.49h3.76v3.1H27.32v-3.1Zm0,4.52h3.76v10.8H27.32V26Z"/><path class="cls-1" d="M38.17,37.15c-3.48,0-5.71-2.19-5.71-5.61a5.39,5.39,0,0,1,5.71-5.77c3.36,0,5.51,2.17,5.51,5.79,0,0.2,0,.4,0,0.62H36.45v0.06a2.14,2.14,0,0,0,2.31,2.35,2.55,2.55,0,0,0,2.41-1.51l2.41,1.11A5.69,5.69,0,0,1,38.17,37.15Zm1.71-7c0-1.35-.64-2.11-1.71-2.11s-1.61.72-1.65,2.11h3.36Z"/><path class="cls-1" d="M45.09,26h3.72v1.57a5.86,5.86,0,0,1,3.74-1.71c2,0,2.79,1.17,2.79,3.58v7.36H51.6V30.4c0-1.31-.14-1.93-1-1.93a3,3,0,0,0-1.75.9v7.44H45.09V26Z"/><path class="cls-1" d="M70.9,37.19c-4.24,0-6.86-3-6.86-7.78,0-5.13,2.73-8.18,7.24-8.18,3.6,0,6,1.89,6.73,5.19l-4.18.68c-0.16-1.81-1.11-2.81-2.53-2.81-1.87,0-2.69,1.61-2.69,4.91s0.72,4.91,2.69,4.91a2.37,2.37,0,0,0,2.59-2.17H71.4V29.23H78v7.58H76.65l-1.21-1.45A5.54,5.54,0,0,1,70.9,37.19Z"/><path class="cls-1" d="M89.35,36.81H85.64a2.63,2.63,0,0,1-.14-0.92A5.27,5.27,0,0,1,82.16,37a2.87,2.87,0,0,1-3-3.08c0-2.51,2.17-3.94,6.33-4V29.07a1,1,0,0,0-1.25-1,1.43,1.43,0,0,0-1.45,1.29l-3.16-.68c0.6-1.93,2.13-2.83,4.7-2.83,3.28,0,4.84,1,4.84,3.22v6.59A4.12,4.12,0,0,0,89.35,36.81Zm-3.86-4.93c-1.73.1-2.63,0.68-2.63,1.65A1.05,1.05,0,0,0,84,34.72a2.47,2.47,0,0,0,1.49-.54V31.88Z"/><path class="cls-1" d="M92.57,33.33a3.59,3.59,0,0,0,3,1.51c1,0,1.57-.4,1.57-0.92,0-.84-1-0.7-2.61-1-2.65-.48-3.92-1.53-3.92-3.38,0-2.23,1.73-3.78,4.7-3.78A5.41,5.41,0,0,1,100,27.84l-2.23,1.39A3,3,0,0,0,95.32,28c-0.88,0-1.41.38-1.41,0.84,0,0.72,1.07.7,3.46,1.19,2.19,0.44,3.18,1.43,3.18,3.24,0,2.49-1.81,3.88-5.19,3.88-2.43,0-4.18-.86-5-2.35Z"/><path class="cls-1" d="M101.9,26h3.74v1.15a3.7,3.7,0,0,1,2.88-1.29c2.57,0,4.38,2.09,4.38,5.29,0,3.84-1.61,5.89-4.42,5.89a3.8,3.8,0,0,1-2.83-1.21v4.64H101.9V26Zm5.23,8.7c1.15,0,1.85-1.19,1.85-3.26,0-2.23-.62-3.38-1.81-3.38a2,2,0,0,0-1.53.84v4.93A2.13,2.13,0,0,0,107.12,34.72Z"/><path class="cls-1" d="M123.81,36.81h-3.72a2.63,2.63,0,0,1-.14-0.92A5.27,5.27,0,0,1,116.61,37a2.87,2.87,0,0,1-3-3.08c0-2.51,2.17-3.94,6.33-4V29.07a1,1,0,0,0-1.25-1,1.43,1.43,0,0,0-1.45,1.29l-3.16-.68c0.6-1.93,2.13-2.83,4.7-2.83,3.28,0,4.84,1,4.84,3.22v6.59A4.12,4.12,0,0,0,123.81,36.81Zm-3.86-4.93c-1.73.1-2.63,0.68-2.63,1.65a1.05,1.05,0,0,0,1.15,1.19,2.47,2.47,0,0,0,1.49-.54V31.88Z"/><path class="cls-1" d="M125.48,26h3.78v1.67a5.06,5.06,0,0,1,3.82-1.91v4a4.6,4.6,0,0,0-2.11-.5,2.23,2.23,0,0,0-1.71.72v6.8h-3.78V26Z"/><path class="cls-1" d="M133.8,29.87h5.89V33H133.8V29.87Z"/><path class="cls-1" d="M148.39,21.23c4.36,0,7.26,3.12,7.26,8s-2.9,8-7.26,8-7.26-3.12-7.26-8S144,21.23,148.39,21.23Zm0,12.79c1.79,0,2.69-1.63,2.69-4.87s-0.9-4.87-2.69-4.87-2.69,1.63-2.69,4.87S146.6,34,148.39,34Z"/><path class="cls-1" d="M157.2,21.49H161V36.81H157.2V21.49Z"/><path class="cls-1" d="M162.93,21.49h3.76v3.1h-3.76v-3.1Zm0,4.52h3.76v10.8h-3.76V26Z"/><path class="cls-1" d="M167.21,26h3.92l2.05,5.81L175.37,26h2.77l-4.08,10.8h-2.79Z"/><path class="cls-1" d="M183.49,37.15c-3.48,0-5.71-2.19-5.71-5.61a5.39,5.39,0,0,1,5.71-5.77c3.36,0,5.51,2.17,5.51,5.79,0,0.2,0,.4,0,0.62h-7.22v0.06a2.14,2.14,0,0,0,2.31,2.35,2.55,2.55,0,0,0,2.41-1.51l2.41,1.11A5.69,5.69,0,0,1,183.49,37.15Zm1.71-7c0-1.35-.64-2.11-1.71-2.11s-1.61.72-1.65,2.11h3.36Z"/><path class="cls-1" d="M190.39,26h3.78v1.67A5.07,5.07,0,0,1,198,25.77v4a4.6,4.6,0,0,0-2.11-.5,2.23,2.23,0,0,0-1.71.72v6.8h-3.78V26Z"/><path class="cls-1" d="M199,21.49h3.76v3.1H199v-3.1ZM199,26h3.76v10.8H199V26Z"/></svg>