<svg id="Calque_1" data-name="Calque 1" xmlns="http://www.w3.org/2000/svg" viewBox="0 0 137.62 37.49"><defs><style>.cls-1{fill:#fff;}</style></defs><title>mort-a-sarajevo-date</title><path class="cls-1" d="M61.86,10.88a5.4,5.4,0,0,0,4,1.9c1.48,0,2.34-.63,2.34-1.48,0-1.11-1.41-1.13-4.06-1.8S59.84,7.22,59.84,5c0-3,2.36-5.11,6.22-5.11a6.71,6.71,0,0,1,5.58,2.45L69.16,4.49a3.94,3.94,0,0,0-3.23-1.58c-1.19,0-1.9.55-1.9,1.23C64,5.26,65.54,5.3,68.33,6s4.12,2.14,4.12,4.55c0,3.21-2.55,5.32-6.81,5.32a7.94,7.94,0,0,1-6.53-3Z" transform="translate(-32.54 0.11)"/><path class="cls-1" d="M79,4.45a5.5,5.5,0,0,1,5.7,5.72,5.7,5.7,0,0,1-11.4,0A5.52,5.52,0,0,1,79,4.45Zm0,8.85c1.21,0,1.72-1.05,1.72-3.19S80.23,6.94,79,6.94,77.3,8,77.3,10.11,77.81,13.31,79,13.31Z" transform="translate(-32.54 0.11)"/><path class="cls-1" d="M86.07,4.7h3.8V6.37a5.09,5.09,0,0,1,3.84-1.92v4A4.62,4.62,0,0,0,91.59,8a2.24,2.24,0,0,0-1.72.73v6.83h-3.8V4.7Z" transform="translate(-32.54 0.11)"/><path class="cls-1" d="M99.25,15.81c-2.4,0-3.58-.91-3.58-2.83V7.08h-1.5V4.7h1.68l0.28-3.84h3.23V4.7h2V7.08h-2v5a0.88,0.88,0,0,0,1,1,4.51,4.51,0,0,0,.95-0.12v2.59A7.66,7.66,0,0,1,99.25,15.81Z" transform="translate(-32.54 0.11)"/><path class="cls-1" d="M102.78,0.15h3.78V3.26h-3.78V0.15Zm0,4.55h3.78V15.55h-3.78V4.7Z" transform="translate(-32.54 0.11)"/><path class="cls-1" d="M113.7,15.89c-3.5,0-5.74-2.2-5.74-5.64a5.42,5.42,0,0,1,5.74-5.8c3.37,0,5.54,2.18,5.54,5.82,0,0.2,0,.4,0,0.63H112V11a2.15,2.15,0,0,0,2.32,2.36,2.56,2.56,0,0,0,2.43-1.52l2.43,1.11A5.72,5.72,0,0,1,113.7,15.89Zm1.72-7.05c0-1.35-.65-2.12-1.72-2.12s-1.62.73-1.66,2.12h3.38Z" transform="translate(-32.54 0.11)"/><path class="cls-1" d="M128,0.15h3.86v15.4H128V0.15Z" transform="translate(-32.54 0.11)"/><path class="cls-1" d="M139.06,15.89c-3.5,0-5.74-2.2-5.74-5.64a5.42,5.42,0,0,1,5.74-5.8c3.37,0,5.54,2.18,5.54,5.82,0,0.2,0,.4,0,0.63h-7.26V11a2.15,2.15,0,0,0,2.32,2.36,2.56,2.56,0,0,0,2.43-1.52l2.43,1.11A5.72,5.72,0,0,1,139.06,15.89Zm1.72-7.05c0-1.35-.65-2.12-1.72-2.12s-1.62.73-1.66,2.12h3.38Z" transform="translate(-32.54 0.11)"/><path class="cls-1" d="M35.25,32.28A4.42,4.42,0,0,0,39,34.44a2,2,0,0,0,2.24-1.82c0-1.43-1.05-2-3.27-2H36.86v-3h1c1.92,0,2.81-.59,2.81-1.86a1.6,1.6,0,0,0-1.84-1.52A4.58,4.58,0,0,0,35.45,26l-2.36-2.22a8.53,8.53,0,0,1,6.24-2.4c3.6,0,5.7,1.58,5.7,3.94,0,1.68-.89,2.73-2.85,3.5,2.34,0.69,3.52,1.92,3.52,3.8,0,2.83-2.4,4.73-6.39,4.73-3.13,0-5.34-1-6.77-3.13Z" transform="translate(-32.54 0.11)"/><path class="cls-1" d="M53.31,21.39c3.86,0,6.61,3.13,6.61,8s-2.75,8-6.61,8-6.61-3.13-6.61-8S49.47,21.39,53.31,21.39Zm0,12.87c1.54,0,2.1-1.6,2.1-4.93s-0.57-5-2.1-5-2.12,1.62-2.12,5S51.78,34.26,53.31,34.26Z" transform="translate(-32.54 0.11)"/><path class="cls-1" d="M78.27,37H74.53A2.64,2.64,0,0,1,74.39,36,5.3,5.3,0,0,1,71,37.21a2.89,2.89,0,0,1-3-3.09c0-2.53,2.18-4,6.37-4V29.19a1.05,1.05,0,0,0-1.25-1,1.44,1.44,0,0,0-1.46,1.29l-3.17-.69C69.12,26.89,70.65,26,73.24,26c3.29,0,4.87,1,4.87,3.23v6.63A4.14,4.14,0,0,0,78.27,37Zm-3.88-5c-1.74.1-2.65,0.69-2.65,1.66a1.06,1.06,0,0,0,1.15,1.19,2.48,2.48,0,0,0,1.5-.55V32Z" transform="translate(-32.54 0.11)"/><path class="cls-1" d="M85,25.87a5.5,5.5,0,0,1,5.7,5.72,5.7,5.7,0,0,1-11.4,0A5.52,5.52,0,0,1,85,25.87Zm0,8.85c1.21,0,1.72-1.05,1.72-3.19S86.25,28.36,85,28.36s-1.72,1-1.72,3.17S83.83,34.73,85,34.73Z" transform="translate(-32.54 0.11)"/><path class="cls-1" d="M102.34,35.84A3.65,3.65,0,0,0,102.5,37H98.6V35.49a5.94,5.94,0,0,1-3.78,1.72c-2,0-2.79-1.17-2.79-3.6v-7.5h3.74v6.55c0,1.31.16,1.94,1.07,1.94a3,3,0,0,0,1.76-.91V26.12h3.74v9.72ZM96.05,22.36H98.4l2,2.79H98.94l-1.72-1.45-1.72,1.45H94.09Z" transform="translate(-32.54 0.11)"/><path class="cls-1" d="M108.4,37.23c-2.4,0-3.58-.91-3.58-2.83V28.5h-1.5V26.12H105l0.28-3.84h3.23v3.84h2V28.5h-2v5a0.88,0.88,0,0,0,1,1,4.51,4.51,0,0,0,.95-0.12V37A7.66,7.66,0,0,1,108.4,37.23Z" transform="translate(-32.54 0.11)"/><path class="cls-1" d="M119.13,34.14l6.18-5c1.29-1.05,1.94-2,1.94-3a1.75,1.75,0,0,0-2-1.78c-1.25,0-2.24.87-2.89,2.61l-3.23-1.6a6.62,6.62,0,0,1,6.35-3.94c3.9,0,6.18,1.8,6.18,4.63,0,2.26-1.5,3.46-4,5.21l-2.93,2h6.93V37H119.13V34.14Z" transform="translate(-32.54 0.11)"/><path class="cls-1" d="M139.42,21.39c3.86,0,6.61,3.13,6.61,8s-2.75,8-6.61,8-6.61-3.13-6.61-8S135.58,21.39,139.42,21.39Zm0,12.87c1.54,0,2.1-1.6,2.1-4.93s-0.57-5-2.1-5-2.12,1.62-2.12,5S137.89,34.26,139.42,34.26Z" transform="translate(-32.54 0.11)"/><path class="cls-1" d="M147.89,33.88h2.55V26.22l-2.45.4V24.1a42.35,42.35,0,0,0,4.89-2.43h2V33.88h2.47V37h-9.46V33.88Z" transform="translate(-32.54 0.11)"/><path class="cls-1" d="M165.69,25.31h-7.44l0.22-3.64h11.68V24c-3.07,4.28-4.71,8.41-4.89,13h-5C160.68,33.76,162.6,30,165.69,25.31Z" transform="translate(-32.54 0.11)"/></svg>