<svg id="Calque_1" data-name="Calque 1" xmlns="http://www.w3.org/2000/svg" viewBox="0 0 1333.56 1579.37"><defs><style>.cls-1{fill:#fff;}</style></defs><title>villeperdue-infos</title><path class="cls-1" d="M952.84,1594.94c-11.1,0-15.7-4.45-15.7-14.7v-24.35h10.75v23.4c0,5.3,1.2,7.65,6.15,7.65s6.15-2.35,6.15-7.65v-23.4h8.4v24.35C968.59,1590.49,963.94,1594.94,952.84,1594.94Z" transform="translate(-402.54 -76.77)"/><path class="cls-1" d="M973.64,1567.14h9.25v3.9c3.4-2.8,6.15-4.25,9.3-4.25,5.05,0,7,2.9,7,8.9V1594h-9.3v-16c0-3.25-.35-4.8-2.6-4.8-1.25,0-2.6.8-4.35,2.25V1594h-9.25v-26.85Z" transform="translate(-402.54 -76.77)"/><path class="cls-1" d="M1023.24,1573h-3.65v-5.9h3.85c0-.85,0-1.7,0-2.45,0-6.75,1.9-9.25,8.1-9.25a23.19,23.19,0,0,1,5.3.65v5.85a7,7,0,0,0-1.4-.1c-1.85,0-2.75.65-2.75,2.05v3.25h4.15v5.9h-4.35v21h-9.2v-21Zm16.45-17.15h9.05v7.7h-9.05v-7.7Zm0,11.25h9.05V1594h-9.05v-26.85Z" transform="translate(-402.54 -76.77)"/><path class="cls-1" d="M1053.69,1555.89h9.55V1594h-9.55v-38.1Z" transform="translate(-402.54 -76.77)"/><path class="cls-1" d="M1067.94,1567.14h9.1v3.9c3.35-2.8,6.15-4.25,9.3-4.25s5.6,1.55,6.5,4.25c3.4-2.8,6.15-4.25,9.3-4.25,5.05,0,7,2.9,7,8.9V1594h-9.15v-16c0-3.25-.35-4.8-2.6-4.8-1.25,0-2.6.8-4.35,2.25V1594h-9v-16c0-3.25-.35-4.8-2.6-4.8-1.25,0-2.6.8-4.35,2.25V1594h-9.1v-26.85Z" transform="translate(-402.54 -76.77)"/><path class="cls-1" d="M1158.39,1594h-9.8v-2.65a11.78,11.78,0,0,1-7.75,3.25c-6,0-10.15-5.2-10.15-13.8s4.35-14,10.35-14a10.26,10.26,0,0,1,7.55,3.4v-14.3h9.4v35.3A10.24,10.24,0,0,0,1158.39,1594Zm-9.8-19.5c-1.2-1.35-2.3-2.05-3.65-2.05-3.15,0-4.35,2.65-4.35,8.25,0,5.4,1.15,8,4.2,8a4.88,4.88,0,0,0,3.8-1.9v-12.3Z" transform="translate(-402.54 -76.77)"/><path class="cls-1" d="M1175.58,1594.84c-8.65,0-14.2-5.45-14.2-14,0-8.75,5.65-14.35,14.2-14.35,8.35,0,13.7,5.4,13.7,14.4,0,0.5,0,1-.05,1.55h-18v0.15c0,3.7,2.15,5.85,5.75,5.85a6.33,6.33,0,0,0,6-3.75l6,2.75C1186.39,1592.34,1181.89,1594.84,1175.58,1594.84Zm4.25-17.45c0-3.35-1.6-5.25-4.25-5.25s-4,1.8-4.1,5.25h8.35Z" transform="translate(-402.54 -76.77)"/><path class="cls-1" d="M818.66,1638.64a16.63,16.63,0,0,0,3,.35c3.35,0,3.9-1.5,3.9-5.4v-24.7h10.75v26.55c0,3.85,0,6.8-2.3,9.35-2.1,2.3-5.15,3.15-9.55,3.15a26.63,26.63,0,0,1-6.6-.75Z" transform="translate(-402.54 -76.77)"/><path class="cls-1" d="M866.71,1644.19a9,9,0,0,0,.4,2.8h-9.65v-3.65c-3.4,2.8-6.2,4.25-9.35,4.25-5.05,0-6.9-2.9-6.9-8.9v-18.55h9.25v16.2c0,3.25.4,4.8,2.65,4.8,1.25,0,2.6-.8,4.35-2.25v-18.75h9.25v24.05Z" transform="translate(-402.54 -76.77)"/><path class="cls-1" d="M871.56,1608.89h9.55V1647h-9.55v-38.1Z" transform="translate(-402.54 -76.77)"/><path class="cls-1" d="M885.81,1608.89h9.35v7.7h-9.35v-7.7Zm0,11.25h9.35V1647h-9.35v-26.85Z" transform="translate(-402.54 -76.77)"/><path class="cls-1" d="M912.81,1647.84c-8.65,0-14.2-5.45-14.2-14,0-8.75,5.65-14.35,14.2-14.35,8.35,0,13.7,5.4,13.7,14.4,0,0.5,0,1-.05,1.55h-18v0.15c0,3.7,2.15,5.85,5.75,5.85a6.34,6.34,0,0,0,6-3.75l6,2.75C923.61,1645.34,919.11,1647.84,912.81,1647.84Zm4.25-17.45c0-3.35-1.6-5.25-4.25-5.25s-4,1.8-4.1,5.25h8.35Z" transform="translate(-402.54 -76.77)"/><path class="cls-1" d="M930,1620.14h9.25v3.9c3.4-2.8,6.15-4.25,9.3-4.25,5.05,0,7,2.9,7,8.9V1647h-9.3v-16c0-3.25-.35-4.8-2.6-4.8-1.25,0-2.6.8-4.35,2.25V1647H930v-26.85Z" transform="translate(-402.54 -76.77)"/><path class="cls-1" d="M994.21,1647.94c-10.55,0-17.05-7.45-17.05-19.35,0-12.75,6.8-20.35,18-20.35,9,0,15,4.7,16.75,12.9l-10.4,1.7c-0.4-4.5-2.75-7-6.3-7-4.65,0-6.7,4-6.7,12.2s1.8,12.2,6.7,12.2c3.65,0,6.2-2.1,6.45-5.4h-6.2v-6.7h16.4V1647h-3.35l-3-3.6C1002.91,1646.49,999.21,1647.94,994.21,1647.94Z" transform="translate(-402.54 -76.77)"/><path class="cls-1" d="M1040.11,1647h-9.25a6.54,6.54,0,0,1-.35-2.3,13.12,13.12,0,0,1-8.3,2.9c-4.45,0-7.45-3-7.45-7.65,0-6.25,5.4-9.8,15.75-9.85v-2.35c0-1.45-1.15-2.4-3.1-2.4a3.56,3.56,0,0,0-3.6,3.2l-7.85-1.7c1.5-4.8,5.3-7.05,11.7-7.05,8.15,0,12.05,2.55,12.05,8v16.4A10.24,10.24,0,0,0,1040.11,1647Zm-9.6-12.25c-4.3.25-6.55,1.7-6.55,4.1a2.61,2.61,0,0,0,2.85,3,6.14,6.14,0,0,0,3.7-1.35v-5.7Z" transform="translate(-402.54 -76.77)"/><path class="cls-1" d="M1048.11,1638.34a8.94,8.94,0,0,0,7.55,3.75c2.45,0,3.9-1,3.9-2.3,0-2.1-2.55-1.75-6.5-2.45-6.6-1.2-9.75-3.8-9.75-8.4,0-5.55,4.3-9.4,11.7-9.4,5.15,0,9.15,1.85,11.5,5.15l-5.55,3.45a7.42,7.42,0,0,0-6-3.1c-2.2,0-3.5,1-3.5,2.1,0,1.8,2.65,1.75,8.6,3,5.45,1.1,7.9,3.55,7.9,8.05,0,6.2-4.5,9.65-12.9,9.65-6.05,0-10.4-2.15-12.5-5.85Z" transform="translate(-402.54 -76.77)"/><path class="cls-1" d="M1071.36,1620.14h9.3V1623a9.2,9.2,0,0,1,7.15-3.2c6.4,0,10.9,5.2,10.9,13.15,0,9.55-4,14.65-11,14.65a9.46,9.46,0,0,1-7.05-3v11.55h-9.3v-36Zm13,21.65c2.85,0,4.6-3,4.6-8.1,0-5.55-1.55-8.4-4.5-8.4a4.9,4.9,0,0,0-3.8,2.1v12.25C1082,1641.09,1083.21,1641.79,1084.36,1641.79Z" transform="translate(-402.54 -76.77)"/><path class="cls-1" d="M1125.86,1647h-9.25a6.54,6.54,0,0,1-.35-2.3,13.12,13.12,0,0,1-8.3,2.9c-4.45,0-7.45-3-7.45-7.65,0-6.25,5.4-9.8,15.75-9.85v-2.35c0-1.45-1.15-2.4-3.1-2.4a3.56,3.56,0,0,0-3.6,3.2l-7.85-1.7c1.5-4.8,5.3-7.05,11.7-7.05,8.15,0,12.05,2.55,12.05,8v16.4A10.24,10.24,0,0,0,1125.86,1647Zm-9.6-12.25c-4.3.25-6.55,1.7-6.55,4.1a2.61,2.61,0,0,0,2.85,3,6.14,6.14,0,0,0,3.7-1.35v-5.7Z" transform="translate(-402.54 -76.77)"/><path class="cls-1" d="M1130,1620.14h9.4v4.15a12.6,12.6,0,0,1,9.5-4.75v10a11.44,11.44,0,0,0-5.25-1.25,5.55,5.55,0,0,0-4.25,1.8V1647H1130v-26.85Z" transform="translate(-402.54 -76.77)"/><path class="cls-1" d="M1150.71,1629.74h14.65v7.9h-14.65v-7.9Z" transform="translate(-402.54 -76.77)"/><path class="cls-1" d="M1187,1608.24c10.85,0,18.05,7.75,18.05,19.85s-7.2,19.85-18.05,19.85-18.05-7.75-18.05-19.85S1176.16,1608.24,1187,1608.24Zm0,31.8c4.45,0,6.7-4.05,6.7-12.1s-2.25-12.1-6.7-12.1-6.7,4.05-6.7,12.1S1182.56,1640,1187,1640Z" transform="translate(-402.54 -76.77)"/><path class="cls-1" d="M1208.91,1608.89h9.55V1647h-9.55v-38.1Z" transform="translate(-402.54 -76.77)"/><path class="cls-1" d="M1223.16,1608.89h9.35v7.7h-9.35v-7.7Zm0,11.25h9.35V1647h-9.35v-26.85Z" transform="translate(-402.54 -76.77)"/><path class="cls-1" d="M1233.81,1620.14h9.75l5.1,14.45,5.45-14.45h6.9L1250.86,1647h-7Z" transform="translate(-402.54 -76.77)"/><path class="cls-1" d="M1274.31,1647.84c-8.65,0-14.2-5.45-14.2-14,0-8.75,5.65-14.35,14.2-14.35,8.35,0,13.7,5.4,13.7,14.4,0,0.5,0,1-.05,1.55h-18v0.15c0,3.7,2.15,5.85,5.75,5.85a6.33,6.33,0,0,0,6-3.75l6,2.75C1285.11,1645.34,1280.61,1647.84,1274.31,1647.84Zm4.25-17.45c0-3.35-1.6-5.25-4.25-5.25s-4,1.8-4.1,5.25h8.35Z" transform="translate(-402.54 -76.77)"/><path class="cls-1" d="M1291.46,1620.14h9.4v4.15a12.6,12.6,0,0,1,9.5-4.75v10a11.44,11.44,0,0,0-5.25-1.25,5.55,5.55,0,0,0-4.25,1.8V1647h-9.4v-26.85Z" transform="translate(-402.54 -76.77)"/><path class="cls-1" d="M1312.86,1608.89h9.35v7.7h-9.35v-7.7Zm0,11.25h9.35V1647h-9.35v-26.85Z" transform="translate(-402.54 -76.77)"/><path class="cls-1" d="M963.29,1582.44c2.9,3.1,6.25,4.7,9.85,4.7s5.8-1.55,5.8-3.65c0-2.75-3.5-2.8-10.05-4.45-6.9-1.7-10.6-5.65-10.6-11.15,0-7.45,5.85-12.65,15.4-12.65,6,0,10.65,2,13.8,6l-6.15,5.35a9.75,9.75,0,0,0-8-3.9c-3,0-4.7,1.35-4.7,3,0,2.75,3.75,2.85,10.65,4.65s10.2,5.3,10.2,11.25c0,8-6.3,13.15-16.85,13.15-6.8,0-12-2.35-16.15-7.35Z" transform="translate(-402.54 -76.77)"/><path class="cls-1" d="M1005.74,1566.54c8.2,0,14.1,5.9,14.1,14.15s-5.9,14.1-14.1,14.1-14.1-5.9-14.1-14.1S997.54,1566.54,1005.74,1566.54Zm0,21.9c3,0,4.25-2.6,4.25-7.9s-1.25-7.85-4.25-7.85-4.25,2.55-4.25,7.85S1002.74,1588.44,1005.74,1588.44Z" transform="translate(-402.54 -76.77)"/><path class="cls-1" d="M1023.19,1567.14h9.4v4.15a12.6,12.6,0,0,1,9.5-4.75v10a11.44,11.44,0,0,0-5.25-1.25,5.55,5.55,0,0,0-4.25,1.8V1594h-9.4v-26.85Z" transform="translate(-402.54 -76.77)"/><path class="cls-1" d="M1055.79,1594.64c-6,0-8.85-2.25-8.85-7V1573h-3.7v-5.9h4.15l0.7-9.5h8v9.5h4.9v5.9h-4.9v12.35c0,1.7.8,2.45,2.55,2.45a11.16,11.16,0,0,0,2.35-.3v6.4A19,19,0,0,1,1055.79,1594.64Z" transform="translate(-402.54 -76.77)"/><path class="cls-1" d="M1064.53,1555.89h9.35v7.7h-9.35v-7.7Zm0,11.25h9.35V1594h-9.35v-26.85Z" transform="translate(-402.54 -76.77)"/><path class="cls-1" d="M1091.54,1594.84c-8.65,0-14.2-5.45-14.2-14,0-8.75,5.65-14.35,14.2-14.35,8.35,0,13.7,5.4,13.7,14.4,0,0.5,0,1,0,1.55h-18v0.15c0,3.7,2.15,5.85,5.75,5.85a6.33,6.33,0,0,0,6-3.75l6,2.75C1102.34,1592.34,1097.84,1594.84,1091.54,1594.84Zm4.25-17.45c0-3.35-1.6-5.25-4.25-5.25s-4,1.8-4.1,5.25h8.35Z" transform="translate(-402.54 -76.77)"/><path class="cls-1" d="M1127,1555.89h9.55V1594H1127v-38.1Z" transform="translate(-402.54 -76.77)"/><path class="cls-1" d="M1154.29,1594.84c-8.65,0-14.2-5.45-14.2-14,0-8.75,5.65-14.35,14.2-14.35,8.35,0,13.7,5.4,13.7,14.4,0,0.5,0,1,0,1.55h-18v0.15c0,3.7,2.15,5.85,5.75,5.85a6.33,6.33,0,0,0,6-3.75l6,2.75C1165.09,1592.34,1160.58,1594.84,1154.29,1594.84Zm4.25-17.45c0-3.35-1.6-5.25-4.25-5.25s-4,1.8-4.1,5.25h8.35Z" transform="translate(-402.54 -76.77)"/><path class="cls-1" d="M906.34,1635.39c2.4,3.55,5.55,5.35,9.35,5.35,3.25,0,5.55-1.85,5.55-4.5,0-3.55-2.6-4.85-8.1-4.85h-2.8V1624h2.55c4.75,0,7-1.45,7-4.6,0-2.2-1.75-3.75-4.55-3.75-3.2,0-5.7,1.4-8.45,4.25l-5.85-5.5c3.85-3.9,9.2-6,15.45-6,8.9,0,14.1,3.9,14.1,9.75,0,4.15-2.2,6.75-7.05,8.65,5.8,1.7,8.7,4.75,8.7,9.4,0,7-6,11.7-15.8,11.7-7.75,0-13.2-2.4-16.75-7.75Z" transform="translate(-402.54 -76.77)"/><path class="cls-1" d="M951,1608.44c9.55,0,16.35,7.75,16.35,19.75s-6.8,19.75-16.35,19.75-16.35-7.75-16.35-19.75S941.54,1608.44,951,1608.44Zm0,31.85c3.8,0,5.2-4,5.2-12.2s-1.4-12.25-5.2-12.25-5.25,4-5.25,12.25S947.24,1640.29,951,1640.29Z" transform="translate(-402.54 -76.77)"/><path class="cls-1" d="M1012.79,1647h-9.25a6.54,6.54,0,0,1-.35-2.3,13.12,13.12,0,0,1-8.3,2.9c-4.45,0-7.45-3-7.45-7.65,0-6.25,5.4-9.8,15.75-9.85v-2.35c0-1.45-1.15-2.4-3.1-2.4a3.56,3.56,0,0,0-3.6,3.2l-7.85-1.7c1.5-4.8,5.3-7.05,11.7-7.05,8.15,0,12.05,2.55,12.05,8v16.4A10.24,10.24,0,0,0,1012.79,1647Zm-9.6-12.25c-4.3.25-6.55,1.7-6.55,4.1a2.61,2.61,0,0,0,2.85,3,6.14,6.14,0,0,0,3.7-1.35v-5.7Z" transform="translate(-402.54 -76.77)"/><path class="cls-1" d="M1029.54,1619.54c8.2,0,14.1,5.9,14.1,14.15s-5.9,14.1-14.1,14.1-14.1-5.9-14.1-14.1S1021.34,1619.54,1029.54,1619.54Zm0,21.9c3,0,4.25-2.6,4.25-7.9s-1.25-7.85-4.25-7.85-4.25,2.55-4.25,7.85S1026.54,1641.44,1029.54,1641.44Z" transform="translate(-402.54 -76.77)"/><path class="cls-1" d="M1072.34,1644.19a9,9,0,0,0,.4,2.8h-9.65v-3.65c-3.4,2.8-6.2,4.25-9.35,4.25-5,0-6.9-2.9-6.9-8.9v-18.55h9.25v16.2c0,3.25.4,4.8,2.65,4.8,1.25,0,2.6-.8,4.35-2.25v-18.75h9.25v24.05Zm-15.55-33.35h5.8l4.85,6.9h-3.5l-4.25-3.6-4.25,3.6h-3.5Z" transform="translate(-402.54 -76.77)"/><path class="cls-1" d="M1087.34,1647.64c-6,0-8.85-2.25-8.85-7V1626h-3.7v-5.9h4.15l0.7-9.5h8v9.5h4.9v5.9h-4.9v12.35c0,1.7.8,2.45,2.55,2.45a11.16,11.16,0,0,0,2.35-.3v6.4A19,19,0,0,1,1087.34,1647.64Z" transform="translate(-402.54 -76.77)"/><path class="cls-1" d="M1113.88,1640l15.3-12.4c3.2-2.6,4.8-5,4.8-7.5,0-2.75-1.85-4.4-5-4.4s-5.55,2.15-7.15,6.45l-8-4c3.35-6.55,8.45-9.75,15.7-9.75,9.65,0,15.3,4.45,15.3,11.45,0,5.6-3.7,8.55-10,12.9l-7.25,5h17.15v9.2h-31v-7Z" transform="translate(-402.54 -76.77)"/><path class="cls-1" d="M1164.08,1608.44c9.55,0,16.35,7.75,16.35,19.75s-6.8,19.75-16.35,19.75-16.35-7.75-16.35-19.75S1154.58,1608.44,1164.08,1608.44Zm0,31.85c3.8,0,5.2-4,5.2-12.2s-1.4-12.25-5.2-12.25-5.25,4-5.25,12.25S1160.28,1640.29,1164.08,1640.29Z" transform="translate(-402.54 -76.77)"/><path class="cls-1" d="M1185,1639.34h6.3v-19l-6.05,1v-6.25a104.7,104.7,0,0,0,12.1-6h5v30.2h6.1V1647H1185v-7.65Z" transform="translate(-402.54 -76.77)"/><path class="cls-1" d="M1229.08,1618.14h-18.4l0.55-9h28.9v5.8c-7.6,10.6-11.65,20.8-12.1,32.05h-12.4C1216.68,1639,1221.43,1629.79,1229.08,1618.14Z" transform="translate(-402.54 -76.77)"/><path class="cls-1" d="M445.32,247.14L402.54,76.77h43.25L470.41,194.1,495.26,76.77h36.8L489,247.14H445.32Z" transform="translate(-402.54 -76.77)"/><path class="cls-1" d="M541.85,76.77h44.21V247.14H541.85V76.77Z" transform="translate(-402.54 -76.77)"/><path class="cls-1" d="M609.23,76.77H653V214.65h57.83v32.5H609.23V76.77Z" transform="translate(-402.54 -76.77)"/><path class="cls-1" d="M721.3,76.77H765V214.65h57.83v32.5H721.3V76.77Z" transform="translate(-402.54 -76.77)"/><path class="cls-1" d="M833.37,76.77H940.18v32.5H877.09v33.21h42.06V175H877.09v39.67h63.08v32.5H833.37V76.77Z" transform="translate(-402.54 -76.77)"/><path class="cls-1" d="M955.95,76.77h58.78c42.29,0,63.32,17.2,63.32,50.9,0,31.78-21.51,50.9-59.74,50.9a185.9,185.9,0,0,1-18.64-1.19v69.77H955.95V76.77Zm43.73,71h5.26c19.59,0,28.44-5.26,28.44-20.07s-8.84-20.07-28.44-20.07h-5.26v40.14Z" transform="translate(-402.54 -76.77)"/><path class="cls-1" d="M1090.71,76.77h106.81v32.5h-63.08v33.21h42.06V175h-42.06v39.67h63.08v32.5H1090.71V76.77Z" transform="translate(-402.54 -76.77)"/><path class="cls-1" d="M1213.29,76.77h63.08c37.28,0,58.54,17.92,58.54,47.07,0,20.07-9.56,34.17-28,40.62l28.67,82.68h-43.49l-21-74.55H1257v74.55h-43.73V76.77Zm44,68.82h7.17c18.64,0,27.24-4.54,27.24-18.64s-8.6-18.64-27.24-18.64h-7.17v37.28Z" transform="translate(-402.54 -76.77)"/><path class="cls-1" d="M1400.86,76.77c47.31,0,72.64,29.63,72.64,85.31s-25.33,85.07-72.64,85.07h-51.14V76.77h51.14Zm-7.41,139.31H1398c22.7,0,29.15-16.25,29.15-54s-6.45-54.24-29.15-54.24h-4.54V216.08Z" transform="translate(-402.54 -76.77)"/><path class="cls-1" d="M1533.48,194.57c0,16,5,23.42,18.4,23.42s18.16-7.41,18.16-23.42V76.77h36.56v124c0,30.35-21.27,49.7-58.3,49.7s-58.54-19.35-58.54-49.7v-124h43.73v117.8Z" transform="translate(-402.54 -76.77)"/><path class="cls-1" d="M1629.29,76.77H1736.1v32.5H1673v33.21h42.06V175H1673v39.67h63.08v32.5H1629.29V76.77Z" transform="translate(-402.54 -76.77)"/></svg>