<svg id="Calque_1" data-name="Calque 1" xmlns="http://www.w3.org/2000/svg" viewBox="0 0 156.45 12.21"><defs><style>.cls-1{fill:#ff0f0f;}</style></defs><title>PCDL_sortie</title><path class="cls-1" d="M2193.13,1696.23l-4.13,11.3h3.28l0.64-2h3.84l0.69,2h3.22l-4.13-11.3h-3.41Zm1.17,5c0.19-.64.37-1.28,0.54-1.94,0.18,0.64.35,1.28,0.54,1.92l0.58,2h-2.24l0.58-1.94h0Zm6.62-1.39V1704a4.9,4.9,0,0,0,.26,1.92,2.56,2.56,0,0,0,.67.93,4.39,4.39,0,0,0,3.06.94,5,5,0,0,0,3.22-.91,3,3,0,0,0,.94-1.73,7.78,7.78,0,0,0,.06-0.83v-4.5h-2.93v4a1.58,1.58,0,0,1-.46,1.41,1.34,1.34,0,0,1-.72.19,1.18,1.18,0,0,1-1.18-1.41v-4.22h-2.91Zm19.63,0.21a5.08,5.08,0,0,0-2.06-.43,4,4,0,0,0-1,.1,4.48,4.48,0,0,0-1.44.62,4,4,0,0,0-1.71,3.46,4,4,0,0,0,1.39,3.14,4.57,4.57,0,0,0,4.77.38v-2.59a2.31,2.31,0,0,1-1.54.59,1.49,1.49,0,0,1-1.58-1.58,1.55,1.55,0,0,1,1.6-1.63,2.38,2.38,0,0,1,1.52.61l0-2.66h0Zm3.6-.21h-2.93v7.73h2.93v-7.73h0Zm-2.61-1.2a1.7,1.7,0,0,0,1.12.46,1.57,1.57,0,0,0,0-3.14,1.56,1.56,0,0,0-1.57,1.55,1.6,1.6,0,0,0,.45,1.12h0Zm12.1,3.86a4,4,0,0,0-.14-1.2,2.34,2.34,0,0,0-2.46-1.68,3.46,3.46,0,0,0-2.7,1.22l0-1h-3v7.73h2.94v-3.92a1.67,1.67,0,0,1,.58-1.39,1.12,1.12,0,0,1,.64-0.18,1.25,1.25,0,0,1,.64.16,1.55,1.55,0,0,1,.5,1.41v3.92h3v-5.07h0Zm9.74,1.89a6.41,6.41,0,0,0-.26-2.11,4,4,0,0,0-1-1.58,4.39,4.39,0,0,0-3.1-1.1,4.52,4.52,0,0,0-3.54,1.44,4,4,0,0,0-.9,2.72,3.67,3.67,0,0,0,2.43,3.79,6.18,6.18,0,0,0,2,.29,4.26,4.26,0,0,0,4-2,3.34,3.34,0,0,0,.27-0.61h-3.09a1.25,1.25,0,0,1-1.22.69,1.58,1.58,0,0,1-1.58-1.46l6,0h0Zm-5.92-1.68c0.1-.19.13-0.26,0.19-0.37a1.58,1.58,0,0,1,2.61-.06,2.09,2.09,0,0,1,.19.43h-3Zm4.74-6.8H2239l-1.49,3.07h2.3l2.42-3.07h0Zm15.17,6.61a4.6,4.6,0,0,0-.14-1.25,2.44,2.44,0,0,0-2.5-1.65,3.08,3.08,0,0,0-2.35.94c-0.13.14-.24,0.29-0.37,0.45a2.11,2.11,0,0,0-.43-0.67,2.8,2.8,0,0,0-2-.72,3.2,3.2,0,0,0-2.06.69,5.18,5.18,0,0,0-.48.51l0-1-2.94,0v7.74H2247v-3.84a1.81,1.81,0,0,1,.54-1.54,1,1,0,0,1,.64-0.19c1.18,0,1.09,1.47,1.09,1.6v4h2.93v-3.84a1.71,1.71,0,0,1,.51-1.5,1,1,0,0,1,.64-0.22,0.94,0.94,0,0,1,.58.18,1.61,1.61,0,0,1,.51,1.36v4h2.91v-5.06h0Zm6.94-1.92a3.11,3.11,0,0,0-2.38-1,3.39,3.39,0,0,0-3,1.54,5,5,0,0,0-.7,2.62,3.92,3.92,0,0,0,1.41,3.3,3.44,3.44,0,0,0,2.18.74,3.6,3.6,0,0,0,2.46-.93l0,0.69h3v-7.73h-3l0,0.75h0ZM2263,1702a1.45,1.45,0,0,1,1.49,1,2.1,2.1,0,0,1,.11.64,1.64,1.64,0,0,1-.93,1.57,1.75,1.75,0,0,1-.7.13,1.48,1.48,0,0,1-1.5-.88,1.88,1.88,0,0,1-.13-0.74,1.59,1.59,0,0,1,1-1.58,2,2,0,0,1,.66-0.1h0Zm9.83-6.46v12h2.93v-12h-2.93Zm12.66,8.77a6.41,6.41,0,0,0-.26-2.11,4,4,0,0,0-1-1.58,4.39,4.39,0,0,0-3.1-1.1,4.52,4.52,0,0,0-3.54,1.44,4,4,0,0,0-.9,2.72,3.67,3.67,0,0,0,2.43,3.79,6.18,6.18,0,0,0,2,.29,4.26,4.26,0,0,0,4-2,3.34,3.34,0,0,0,.27-0.61h-3.09a1.25,1.25,0,0,1-1.22.69,1.58,1.58,0,0,1-1.58-1.46l6,0h0Zm-5.92-1.68c0.1-.19.13-0.26,0.19-0.37a1.58,1.58,0,0,1,2.61-.06,2.09,2.09,0,0,1,.19.43h-3Zm12.69-6.43v2.7h1.73v8.59h2.94v-11.3h-4.67Zm11.47,8.64a11.18,11.18,0,0,0,2.93-3.76,4.35,4.35,0,0,0,.26-1.49,3.57,3.57,0,0,0-1.33-2.9,4,4,0,0,0-2.69-.77,5.64,5.64,0,0,0-1.65.22,4.16,4.16,0,0,0-2.83,3,6.5,6.5,0,0,0-.16,1.28l3.14,0a3.66,3.66,0,0,1,0-.4,1.47,1.47,0,0,1,1.42-1.58,1.17,1.17,0,0,1,1.22,1.31,3.18,3.18,0,0,1-.85,2c-0.27.35-.58,0.7-0.86,1.06-0.46.53-.93,1-1.39,1.55l-1.15,1.25c-0.53.58-1.06,1.18-1.57,1.79h8.82v-2.66h-3.26Zm14.8-4.32a3.11,3.11,0,0,0-2.38-1,3.39,3.39,0,0,0-3,1.54,5,5,0,0,0-.7,2.62,3.92,3.92,0,0,0,1.41,3.3,3.44,3.44,0,0,0,2.18.74,3.6,3.6,0,0,0,2.46-.93l0,0.69h3v-7.73h-3l0,0.75h0Zm-1.36,1.49a1.45,1.45,0,0,1,1.49,1,2.12,2.12,0,0,1,.11.64,1.64,1.64,0,0,1-.93,1.57,1.75,1.75,0,0,1-.7.13,1.48,1.48,0,0,1-1.5-.88,1.88,1.88,0,0,1-.13-0.74,1.59,1.59,0,0,1,1-1.58,2,2,0,0,1,.66-0.1h0Zm4.54-2.24,3.7,7.73h2.26l3.63-7.73h-3.07l-1.66,4-1.76-4h-3.09Zm16,0a4.32,4.32,0,0,0-.91-0.13,3.47,3.47,0,0,0-2.11.82l-0.3.24,0-1h-2.83v7.73h2.93v-3.47a2.05,2.05,0,0,1,.22-1.07,1.22,1.22,0,0,1,.35-0.42,2.19,2.19,0,0,1,1.17-.3,4.42,4.42,0,0,1,1.46.27v-2.7h0Zm3.62,0h-2.93v7.73h2.93v-7.73h0Zm-2.61-1.2a1.7,1.7,0,0,0,1.12.46,1.57,1.57,0,0,0,0-3.14,1.56,1.56,0,0,0-1.57,1.55,1.6,1.6,0,0,0,.45,1.12h0Zm3.86-3v12h2.93v-12h-2.93Z" transform="translate(-2189 -1695.57)"/></svg>