<svg id="Calque_1" data-name="Calque 1" xmlns="http://www.w3.org/2000/svg" viewBox="0 0 1898.92 1419.91"><defs><style>.cls-1{fill:#fff;}</style></defs><title>dans-les-pas-de-trisha-brown</title><path class="cls-1" d="M6,2.33H17.14c5.16,0,11.23,0,15.49,5,3.41,4,4.74,9.26,4.74,14.53,0,8.3-3.46,13.41-6.39,15.75-3.78,3.14-8.51,3.14-14.16,3.14H6V2.33Zm5.32,34.06h5.22c3.67,0,7.5-.21,10.06-2.13,4.9-3.67,5.06-10,5.06-12.19,0-1.44-.11-8-3.73-12C25.5,7.39,22.41,6.75,17.73,6.75H11.34V36.39Z" transform="translate(-2.45 -1.59)"/><path class="cls-1" d="M159.76,2.33h5.69L181,40.75h-5.8l-4.15-10H153.22l-4.15,10h-5.48Zm-4.84,24.11h14.53L162.37,7.6Z" transform="translate(-2.45 -1.59)"/><path class="cls-1" d="M291,2.33h7.4L317.29,34.1V2.33h4.9V40.75h-6.81L295.84,8.13V40.75H291V2.33Z" transform="translate(-2.45 -1.59)"/><path class="cls-1" d="M440.28,29.52c0.11,2.66.43,7.61,9.26,7.61,8,0,9-4.95,9-6.86,0-4.31-3.46-5.16-8.83-6.49-5.85-1.44-8.46-2.08-10.43-3.41a8.68,8.68,0,0,1-4-7.56c0-7.82,7.4-11.23,14.63-11.23,2.55,0,7.72.43,10.8,3.78a9.85,9.85,0,0,1,2.34,6.55h-5.53c-0.27-4.79-4.31-5.85-8.09-5.85-5.32,0-8.51,2.39-8.51,6.23,0,3.41,2.24,4.58,6.92,5.69,9.15,2.34,10.16,2.55,12.4,4a8.81,8.81,0,0,1,3.83,7.66c0,6.81-5.32,12-15.17,12-2.93,0-8.89-.48-11.92-4.36a12,12,0,0,1-2.24-7.77h5.53Z" transform="translate(-2.45 -1.59)"/><path class="cls-1" d="M687.63,2.33h5.27V36h17.88v4.74H687.63V2.33Z" transform="translate(-2.45 -1.59)"/><path class="cls-1" d="M820.68,2.33h24.11V6.85H826v12h17.88V23.3H826V36.07h19.21v4.68H820.68V2.33Z" transform="translate(-2.45 -1.59)"/><path class="cls-1" d="M962.08,29.52c0.11,2.66.43,7.61,9.26,7.61,8,0,9-4.95,9-6.86,0-4.31-3.46-5.16-8.83-6.49-5.85-1.44-8.46-2.08-10.43-3.41a8.67,8.67,0,0,1-4-7.56c0-7.82,7.4-11.23,14.63-11.23,2.55,0,7.72.43,10.8,3.78a9.85,9.85,0,0,1,2.34,6.55h-5.53c-0.27-4.79-4.31-5.85-8.09-5.85-5.32,0-8.51,2.39-8.51,6.23,0,3.41,2.23,4.58,6.92,5.69,9.15,2.34,10.16,2.55,12.4,4a8.81,8.81,0,0,1,3.83,7.66c0,6.81-5.32,12-15.17,12-2.93,0-8.89-.48-11.92-4.36a12,12,0,0,1-2.23-7.77h5.53Z" transform="translate(-2.45 -1.59)"/><path class="cls-1" d="M1209.17,2.33H1222c4.68,0,7.88.27,10.48,3.09a10.41,10.41,0,0,1,2.82,7.45,10.15,10.15,0,0,1-3,7.5c-2,2-4.68,3.3-11.6,3.3h-6.23V40.75h-5.32V2.33Zm5.32,16.87h6.33c3.51,0,8.89-.27,8.89-6.55,0-6-5-6-7.77-6h-7.45V19.2Z" transform="translate(-2.45 -1.59)"/><path class="cls-1" d="M1353,2.33h5.69l15.54,38.42h-5.8l-4.15-10h-17.83l-4.15,10h-5.48Zm-4.84,24.11h14.53L1355.62,7.6Z" transform="translate(-2.45 -1.59)"/><path class="cls-1" d="M1486.65,29.52c0.11,2.66.43,7.61,9.26,7.61,8,0,9-4.95,9-6.86,0-4.31-3.46-5.16-8.83-6.49-5.85-1.44-8.46-2.08-10.43-3.41a8.67,8.67,0,0,1-4-7.56c0-7.82,7.4-11.23,14.63-11.23,2.55,0,7.72.43,10.8,3.78a9.85,9.85,0,0,1,2.34,6.55h-5.53c-0.27-4.79-4.31-5.85-8.09-5.85-5.32,0-8.51,2.39-8.51,6.23,0,3.41,2.24,4.58,6.92,5.69,9.15,2.34,10.16,2.55,12.4,4a8.81,8.81,0,0,1,3.83,7.66c0,6.81-5.32,12-15.17,12-2.93,0-8.89-.48-11.92-4.36a12,12,0,0,1-2.23-7.77h5.53Z" transform="translate(-2.45 -1.59)"/><path class="cls-1" d="M1733.74,2.33h11.12c5.16,0,11.23,0,15.49,5,3.41,4,4.74,9.26,4.74,14.53,0,8.3-3.46,13.41-6.39,15.75-3.78,3.14-8.51,3.14-14.16,3.14h-10.8V2.33Zm5.32,34.06h5.22c3.67,0,7.5-.21,10.06-2.13,4.9-3.67,5.06-10,5.06-12.19,0-1.44-.11-8-3.72-12-2.45-2.71-5.53-3.35-10.22-3.35h-6.39V36.39Z" transform="translate(-2.45 -1.59)"/><path class="cls-1" d="M1875.94,2.33H1900V6.85h-18.78v12h17.88V23.3h-17.88V36.07h19.21v4.68h-24.53V2.33Z" transform="translate(-2.45 -1.59)"/><path class="cls-1" d="M15.33,385.71v-33.9H2.45v-4.52h31v4.52H20.6v33.9H15.33Z" transform="translate(-2.45 -1.59)"/><path class="cls-1" d="M174.45,347.29h13.73c2,0,6,0,8.83,1.81a9,9,0,0,1,4.26,7.82,9.3,9.3,0,0,1-7.24,9.31c3.67,1,5.32,2.61,5.85,7.4a51.15,51.15,0,0,0,2.39,12.08h-5.69c-0.85-2.55-1.38-7.24-1.76-10.16-0.64-5.59-2-7.18-8.41-7.18h-6.71v17.35h-5.27V347.29Zm5.16,16.55H188c0.59,0,3.62,0,5.06-.85a5.46,5.46,0,0,0,2.61-5c0-6.23-5.53-6.23-7.66-6.23h-8.41v12.08Z" transform="translate(-2.45 -1.59)"/><path class="cls-1" d="M346.08,347.29h5.32v38.42h-5.32V347.29Z" transform="translate(-2.45 -1.59)"/><path class="cls-1" d="M500.73,374.48c0.11,2.66.43,7.61,9.26,7.61,8,0,9-4.95,9-6.86,0-4.31-3.46-5.16-8.83-6.49-5.85-1.44-8.46-2.08-10.43-3.41a8.68,8.68,0,0,1-4-7.56c0-7.82,7.4-11.23,14.63-11.23,2.55,0,7.72.43,10.8,3.78a9.85,9.85,0,0,1,2.34,6.55H518c-0.27-4.79-4.31-5.85-8.09-5.85-5.32,0-8.51,2.39-8.51,6.23,0,3.41,2.23,4.58,6.92,5.69,9.15,2.34,10.16,2.55,12.4,4a8.81,8.81,0,0,1,3.83,7.66c0,6.81-5.32,12-15.17,12-2.93,0-8.89-.48-11.92-4.36a12,12,0,0,1-2.24-7.77h5.53Z" transform="translate(-2.45 -1.59)"/><path class="cls-1" d="M673.74,347.29v16.5H692v-16.5h5.32v38.42H692V368.36H673.74v17.35h-5.32V347.29h5.32Z" transform="translate(-2.45 -1.59)"/><path class="cls-1" d="M854.84,347.29h5.69l15.54,38.42h-5.8l-4.15-10H848.3l-4.15,10h-5.48ZM850,371.4h14.53l-7.08-18.84Z" transform="translate(-2.45 -1.59)"/><path class="cls-1" d="M1160.37,347.29h13.73c4.68,0,7.29.48,9.69,2.82a9.15,9.15,0,0,1,2.71,6.86c0,6.33-4.63,8-6.49,8.67,2.23,0.64,7.66,2.24,7.66,9.58A10.29,10.29,0,0,1,1183,384c-2.66,1.76-5.64,1.76-8.67,1.76h-14V347.29Zm5.16,16.23H1173c1.81,0,8,0,8-6.07,0-5.8-4.84-5.8-7.77-5.8h-7.66v11.87Zm0,17.88h9.1c4.2,0,7.56-2.24,7.56-6.65,0-3.83-2.66-6.65-7.34-6.65h-9.31v13.3Z" transform="translate(-2.45 -1.59)"/><path class="cls-1" d="M1331.41,347.29h13.73c2,0,6,0,8.83,1.81a9,9,0,0,1,4.26,7.82,9.3,9.3,0,0,1-7.24,9.31c3.67,1,5.32,2.61,5.85,7.4a51.17,51.17,0,0,0,2.39,12.08h-5.69c-0.85-2.55-1.38-7.24-1.76-10.16-0.64-5.59-2-7.18-8.41-7.18h-6.71v17.35h-5.27V347.29Zm5.16,16.55H1345c0.59,0,3.62,0,5.06-.85a5.46,5.46,0,0,0,2.61-5c0-6.23-5.53-6.23-7.66-6.23h-8.41v12.08Z" transform="translate(-2.45 -1.59)"/><path class="cls-1" d="M1506.45,351.44a17.13,17.13,0,0,1,12.82-5.16c10.64,0,17.35,6.81,17.35,19.85,0,10.22-4.1,20.49-17.77,20.49-13.09,0-17.35-9.31-17.35-19.85C1501.5,362.4,1502.24,356,1506.45,351.44Zm4,27.14c2.18,2.71,5.48,3.51,8.51,3.51s6.28-.85,8.51-3.51c3.14-3.83,3.46-9.9,3.46-12.51,0-8.73-2.87-15.33-11.65-15.33-9.74,0-12.24,7.82-12.24,15.7C1507.08,370.65,1507.83,375.28,1510.49,378.58Z" transform="translate(-2.45 -1.59)"/><path class="cls-1" d="M1679.78,347.29l8.3,31.61,9.15-31.61h6.6l8.67,31.88,8.73-31.88h5.22l-11.39,38.42h-5.91l-8.89-32.83-9.53,32.83H1685l-10.91-38.42h5.69Z" transform="translate(-2.45 -1.59)"/><path class="cls-1" d="M1868,347.29h7.4l18.89,31.77V347.29h4.9v38.42h-6.81l-19.53-32.62v32.62H1868V347.29Z" transform="translate(-2.45 -1.59)"/><path class="cls-1" d="M11.61,692.25V716c0,4.1.9,5.8,1.7,6.92,2.39,3.19,6.12,3.78,8.78,3.78,10.38,0,10.38-8.14,10.38-10.91V692.25h5.16v23.68a15.62,15.62,0,0,1-3.14,10.22c-3.78,4.74-9.63,5.32-12.4,5.32-3.62,0-10-1-13.57-6.12-1.17-1.7-2.24-3.94-2.24-9.68V692.25h5.32Z" transform="translate(-2.45 -1.59)"/><path class="cls-1" d="M226.93,692.25h7.4L253.22,724V692.25h4.9v38.42H251.3L231.77,698v32.62h-4.84V692.25Z" transform="translate(-2.45 -1.59)"/><path class="cls-1" d="M633.14,692.25H656v4.52H638.57v12H655v4.47H638.57v17.45h-5.43V692.25Z" transform="translate(-2.45 -1.59)"/><path class="cls-1" d="M841.49,692.25h5.32v38.42h-5.32V692.25Z" transform="translate(-2.45 -1.59)"/><path class="cls-1" d="M1035.63,692.25h5.27v33.69h17.88v4.74h-23.15V692.25Z" transform="translate(-2.45 -1.59)"/><path class="cls-1" d="M1244.14,692.25h9.42l10.86,31.66,11.12-31.66h8.78v38.42h-5.22V696.08l-12.61,34.59h-5.06l-12.13-34.38v34.38h-5.16V692.25Z" transform="translate(-2.45 -1.59)"/><path class="cls-1" d="M1659.13,692.25h11.12c5.16,0,11.23,0,15.49,5,3.41,4,4.74,9.26,4.74,14.53,0,8.3-3.46,13.41-6.39,15.75-3.78,3.14-8.51,3.14-14.16,3.14h-10.8V692.25Zm5.32,34.06h5.22c3.67,0,7.5-.21,10.06-2.13,4.9-3.67,5.06-10,5.06-12.19,0-1.44-.11-8-3.72-12-2.45-2.71-5.53-3.35-10.22-3.35h-6.39v29.64Z" transform="translate(-2.45 -1.59)"/><path class="cls-1" d="M1876,692.25h24.11v4.52h-18.78v12h17.88v4.47h-17.88V726h19.21v4.68H1876V692.25Z" transform="translate(-2.45 -1.59)"/><path class="cls-1" d="M6.13,1037.21h9.42l10.86,31.66,11.12-31.66H46.3v38.42H41.09V1041l-12.61,34.59H23.42l-12.13-34.38v34.38H6.13v-38.42Z" transform="translate(-2.45 -1.59)"/><path class="cls-1" d="M140.77,1037.21h5.69L162,1075.63h-5.8l-4.15-10H134.22l-4.15,10h-5.48Zm-4.84,24.11h14.53l-7.08-18.84Z" transform="translate(-2.45 -1.59)"/><path class="cls-1" d="M239.64,1037.21h13.73c2,0,6,0,8.83,1.81a9,9,0,0,1,4.26,7.82,9.3,9.3,0,0,1-7.24,9.31c3.67,1,5.32,2.61,5.85,7.4a51.17,51.17,0,0,0,2.39,12.08h-5.69c-0.85-2.55-1.38-7.24-1.76-10.16-0.64-5.59-2-7.18-8.41-7.18h-6.71v17.35h-5.27v-38.42Zm5.16,16.55h8.41c0.59,0,3.62,0,5.06-.85a5.46,5.46,0,0,0,2.61-5c0-6.23-5.53-6.23-7.66-6.23h-8.41v12.08Z" transform="translate(-2.45 -1.59)"/><path class="cls-1" d="M347.78,1037.21h5.32v38.42h-5.32v-38.42Z" transform="translate(-2.45 -1.59)"/><path class="cls-1" d="M434.42,1037.21h24.11v4.52H439.74v12h17.88v4.47H439.74v12.77H459v4.68H434.42v-38.42Z" transform="translate(-2.45 -1.59)"/><path class="cls-1" d="M537.61,1059.61H551v4H537.61v-4Z" transform="translate(-2.45 -1.59)"/><path class="cls-1" d="M635.59,1037.21v16.5h18.25v-16.5h5.32v38.42h-5.32v-17.35H635.59v17.35h-5.32v-38.42h5.32Z" transform="translate(-2.45 -1.59)"/><path class="cls-1" d="M740.58,1037.21h24.11v4.52H745.91v12h17.88v4.47H745.91v12.77h19.21v4.68H740.58v-38.42Zm19-10-6.44,7.66h-3.46l4.36-7.66h5.53Z" transform="translate(-2.45 -1.59)"/><path class="cls-1" d="M846.49,1037.21h5.27v33.69h17.88v4.74H846.49v-38.42Z" transform="translate(-2.45 -1.59)"/><path class="cls-1" d="M947.71,1037.21h24.11v4.52H953v12h17.88v4.47H953v12.77h19.21v4.68H947.71v-38.42Zm11-10,4.47,7.66h-3.3l-7.18-7.66h6Z" transform="translate(-2.45 -1.59)"/><path class="cls-1" d="M1053.77,1037.21h7.4l18.89,31.77v-31.77h4.9v38.42h-6.81L1058.61,1043v32.62h-4.84v-38.42Z" transform="translate(-2.45 -1.59)"/><path class="cls-1" d="M1166.65,1037.21h24.11v4.52H1172v12h17.88v4.47H1172v12.77h19.21v4.68h-24.53v-38.42Z" transform="translate(-2.45 -1.59)"/><path class="cls-1" d="M1351.37,1037.21h13.73c2,0,6,0,8.83,1.81a9,9,0,0,1,4.26,7.82,9.3,9.3,0,0,1-7.24,9.31c3.67,1,5.32,2.61,5.85,7.4a51.17,51.17,0,0,0,2.39,12.08h-5.69c-0.85-2.55-1.38-7.24-1.76-10.16-0.64-5.59-2-7.18-8.41-7.18h-6.71v17.35h-5.27v-38.42Zm5.16,16.55h8.41c0.59,0,3.62,0,5.06-.85a5.46,5.46,0,0,0,2.61-5c0-6.23-5.53-6.23-7.66-6.23h-8.41v12.08Z" transform="translate(-2.45 -1.59)"/><path class="cls-1" d="M1458.87,1037.21H1483v4.52h-18.78v12h17.88v4.47h-17.88v12.77h19.21v4.68h-24.53v-38.42Z" transform="translate(-2.45 -1.59)"/><path class="cls-1" d="M1564.93,1037.21h13.73c4.68,0,7.29.48,9.69,2.82a9.15,9.15,0,0,1,2.71,6.87c0,6.33-4.63,8-6.49,8.67,2.23,0.64,7.66,2.23,7.66,9.58a10.3,10.3,0,0,1-4.63,8.73c-2.66,1.76-5.64,1.76-8.67,1.76h-14v-38.42Zm5.16,16.23h7.45c1.81,0,8,0,8-6.07,0-5.8-4.84-5.8-7.77-5.8h-7.66v11.87Zm0,17.88h9.1c4.2,0,7.56-2.24,7.56-6.65,0-3.83-2.66-6.65-7.34-6.65h-9.31v13.3Z" transform="translate(-2.45 -1.59)"/><path class="cls-1" d="M1676,1041.36a17.13,17.13,0,0,1,12.83-5.16c10.64,0,17.35,6.81,17.35,19.85,0,10.22-4.1,20.49-17.77,20.49-13.09,0-17.35-9.31-17.35-19.85C1671,1052.32,1671.79,1045.88,1676,1041.36Zm4,27.14c2.18,2.71,5.48,3.51,8.51,3.51s6.28-.85,8.51-3.51c3.14-3.83,3.46-9.9,3.46-12.51,0-8.73-2.87-15.33-11.65-15.33-9.74,0-12.24,7.82-12.24,15.7C1676.63,1060.57,1677.38,1065.2,1680,1068.5Z" transform="translate(-2.45 -1.59)"/><path class="cls-1" d="M1786.48,1037.21h5.32v38.42h-5.32v-38.42Z" transform="translate(-2.45 -1.59)"/><path class="cls-1" d="M1877.58,1064.4c0.11,2.66.43,7.61,9.26,7.61,8,0,9-4.95,9-6.86,0-4.31-3.46-5.16-8.83-6.49-5.85-1.44-8.46-2.08-10.43-3.41a8.67,8.67,0,0,1-4-7.56c0-7.82,7.4-11.23,14.63-11.23,2.55,0,7.72.43,10.8,3.78a9.85,9.85,0,0,1,2.34,6.55h-5.53c-0.27-4.79-4.31-5.85-8.09-5.85-5.32,0-8.51,2.39-8.51,6.23,0,3.41,2.24,4.58,6.92,5.69,9.15,2.34,10.16,2.55,12.4,4a8.81,8.81,0,0,1,3.83,7.66c0,6.81-5.32,12-15.17,12-2.93,0-8.89-.48-11.92-4.36a12,12,0,0,1-2.23-7.77h5.53Z" transform="translate(-2.45 -1.59)"/><path class="cls-1" d="M9.85,1409.36c0.11,2.66.43,7.61,9.26,7.61,8,0,9-4.95,9-6.86,0-4.31-3.46-5.16-8.83-6.49-5.85-1.44-8.46-2.08-10.43-3.41a8.67,8.67,0,0,1-4-7.56c0-7.82,7.4-11.23,14.63-11.23,2.55,0,7.72.43,10.8,3.78a9.85,9.85,0,0,1,2.34,6.55H27.09c-0.27-4.79-4.31-5.85-8.09-5.85-5.32,0-8.51,2.39-8.51,6.23,0,3.41,2.24,4.58,6.92,5.69,9.15,2.34,10.16,2.55,12.4,4a8.81,8.81,0,0,1,3.83,7.66c0,6.81-5.32,12-15.17,12-2.93,0-8.89-.48-11.92-4.36a12,12,0,0,1-2.24-7.77H9.85Z" transform="translate(-2.45 -1.59)"/><path class="cls-1" d="M109,1386.32a17.13,17.13,0,0,1,12.83-5.16c10.64,0,17.35,6.81,17.35,19.85,0,10.22-4.1,20.49-17.77,20.49-13.09,0-17.35-9.31-17.35-19.85C104,1397.28,104.79,1390.84,109,1386.32Zm4,27.14c2.18,2.71,5.48,3.51,8.51,3.51s6.28-.85,8.51-3.51c3.14-3.83,3.46-9.9,3.46-12.51,0-8.73-2.87-15.33-11.65-15.33-9.74,0-12.24,7.82-12.24,15.7C109.63,1405.53,110.38,1410.16,113,1413.46Z" transform="translate(-2.45 -1.59)"/><path class="cls-1" d="M210.91,1382.17h13.73c2,0,6,0,8.83,1.81a9,9,0,0,1,4.26,7.82,9.3,9.3,0,0,1-7.24,9.31c3.67,1,5.32,2.61,5.85,7.4a51.17,51.17,0,0,0,2.39,12.08H233c-0.85-2.55-1.38-7.24-1.76-10.16-0.64-5.59-2-7.18-8.41-7.18h-6.71v17.35h-5.27v-38.42Zm5.16,16.55h8.41c0.59,0,3.62,0,5.06-.85a5.46,5.46,0,0,0,2.61-5c0-6.23-5.53-6.23-7.66-6.23h-8.41v12.08Z" transform="translate(-2.45 -1.59)"/><path class="cls-1" d="M318.3,1420.59v-33.9H305.42v-4.52h31v4.52H323.57v33.9H318.3Z" transform="translate(-2.45 -1.59)"/><path class="cls-1" d="M405.53,1382.17h5.32v38.42h-5.32v-38.42Z" transform="translate(-2.45 -1.59)"/><path class="cls-1" d="M483.76,1382.17h24.11v4.52H489.08v12H507v4.47H489.08v12.77h19.21v4.68H483.76v-38.42Z" transform="translate(-2.45 -1.59)"/><path class="cls-1" d="M652,1382.17h5.27v33.69h17.88v4.74H652v-38.42Z" transform="translate(-2.45 -1.59)"/><path class="cls-1" d="M744.68,1382.17h24.11v4.52H750v12h17.88v4.47H750v12.77h19.21v4.68H744.68v-38.42Z" transform="translate(-2.45 -1.59)"/><path class="cls-1" d="M929.62,1392.49c-0.05-4.31-3.25-5.48-5.59-5.48-5.32,0-7.66,4.58-8.14,14.37a9.33,9.33,0,0,1,8.57-4.68c6,0,11.12,4,11.12,11.81,0,8.57-6.12,12.88-12.45,12.88-3.57,0-7.13-1.44-9.1-4-2.71-3.62-3.35-8.89-3.35-13.57,0-8,2-20.81,13.62-20.81a11.55,11.55,0,0,1,8.83,3.51,8.93,8.93,0,0,1,2,6h-5.48Zm0.85,16.5c0-2.61-.74-8.2-6.87-8.2-4.95,0-7.34,4-7.34,8.25,0,4.79,3,8.3,7.08,8.3C926.64,1417.34,930.47,1415,930.47,1409Z" transform="translate(-2.45 -1.59)"/><path class="cls-1" d="M1080.81,1409.36c0.11,2.66.43,7.61,9.26,7.61,8,0,9-4.95,9-6.86,0-4.31-3.46-5.16-8.83-6.49-5.85-1.44-8.46-2.08-10.43-3.41a8.67,8.67,0,0,1-4-7.56c0-7.82,7.4-11.23,14.63-11.23,2.55,0,7.72.43,10.8,3.78a9.85,9.85,0,0,1,2.34,6.55h-5.53c-0.27-4.79-4.31-5.85-8.09-5.85-5.32,0-8.51,2.39-8.51,6.23,0,3.41,2.24,4.58,6.92,5.69,9.15,2.34,10.16,2.55,12.4,4a8.81,8.81,0,0,1,3.83,7.66c0,6.81-5.32,12-15.17,12-2.93,0-8.89-.48-11.92-4.36a12,12,0,0,1-2.24-7.77h5.53Z" transform="translate(-2.45 -1.59)"/><path class="cls-1" d="M1175.91,1382.17H1200v4.52h-18.78v12h17.88v4.47h-17.88v12.77h19.21v4.68h-24.53v-38.42Z" transform="translate(-2.45 -1.59)"/><path class="cls-1" d="M1273.14,1382.17H1286c4.68,0,7.88.27,10.48,3.09a10.41,10.41,0,0,1,2.82,7.45,10.15,10.15,0,0,1-3,7.5c-2,2-4.68,3.3-11.6,3.3h-6.23v17.08h-5.32v-38.42Zm5.32,16.87h6.33c3.51,0,8.89-.27,8.89-6.55,0-6-5-6-7.77-6h-7.45V1399Z" transform="translate(-2.45 -1.59)"/><path class="cls-1" d="M1379,1420.59v-33.9h-12.88v-4.52h31v4.52h-12.88v33.9H1379Z" transform="translate(-2.45 -1.59)"/><path class="cls-1" d="M1465.57,1382.17h24.11v4.52h-18.78v12h17.88v4.47h-17.88v12.77h19.21v4.68h-24.53v-38.42Z" transform="translate(-2.45 -1.59)"/><path class="cls-1" d="M1562.86,1382.17h9.42l10.86,31.66,11.12-31.66H1603v38.42h-5.22V1386l-12.61,34.59h-5.06L1568,1386.21v34.38h-5.16v-38.42Z" transform="translate(-2.45 -1.59)"/><path class="cls-1" d="M1677.43,1382.17h13.73c4.68,0,7.29.48,9.69,2.82a9.15,9.15,0,0,1,2.71,6.87c0,6.33-4.63,8-6.49,8.67,2.23,0.64,7.66,2.23,7.66,9.58a10.3,10.3,0,0,1-4.63,8.73c-2.66,1.76-5.64,1.76-8.67,1.76h-14v-38.42Zm5.16,16.23H1690c1.81,0,8,0,8-6.07,0-5.8-4.84-5.8-7.77-5.8h-7.66v11.87Zm0,17.88h9.1c4.2,0,7.56-2.24,7.56-6.65,0-3.83-2.66-6.65-7.34-6.65h-9.31v13.3Z" transform="translate(-2.45 -1.59)"/><path class="cls-1" d="M1776.53,1382.17h13.73c2,0,6,0,8.83,1.81a9,9,0,0,1,4.26,7.82,9.3,9.3,0,0,1-7.24,9.31c3.67,1,5.32,2.61,5.85,7.4a51.17,51.17,0,0,0,2.39,12.08h-5.69c-0.85-2.55-1.38-7.24-1.76-10.16-0.64-5.59-2-7.18-8.41-7.18h-6.71v17.35h-5.27v-38.42Zm5.16,16.55h8.41c0.59,0,3.62,0,5.06-.85a5.46,5.46,0,0,0,2.61-5c0-6.23-5.53-6.23-7.66-6.23h-8.41v12.08Z" transform="translate(-2.45 -1.59)"/><path class="cls-1" d="M1875.56,1382.17h24.11v4.52h-18.78v12h17.88v4.47h-17.88v12.77h19.21v4.68h-24.53v-38.42Z" transform="translate(-2.45 -1.59)"/></svg>