<?xml version="1.0" encoding="utf-8"?>
<!-- Generator: Adobe Illustrator 18.0.0, SVG Export Plug-In . SVG Version: 6.00 Build 0)  -->
<!DOCTYPE svg PUBLIC "-//W3C//DTD SVG 1.1//EN" "http://www.w3.org/Graphics/SVG/1.1/DTD/svg11.dtd">
<svg version="1.1" id="Calque_1" xmlns="http://www.w3.org/2000/svg" xmlns:xlink="http://www.w3.org/1999/xlink" x="0px" y="0px"
	 viewBox="0 0 453.5 170.1" enable-background="new 0 0 453.5 170.1" xml:space="preserve">
<g>
	<g>
		<path fill="#FFFFFF" d="M25.1,93.5V34.3h11.1c5.8,0,11.1,0,14.6,4.4c2.8,3.4,3,6.5,3,20.9c0,3.2,0,7-0.2,15
			c-0.1,5.8-0.3,10-2.3,13.5c-3.4,5.4-8.9,5.4-15.3,5.4H25.1z M32.4,87h4.8c4.7,0,8-0.4,8.9-5.7c0.4-2.8,0.5-11.1,0.5-14.2
			c0-5.4,0-7.5-0.1-13.2c-0.1-6.5-0.2-9.6-2.8-11.5c-1.8-1.3-3.5-1.3-11.3-1.3V87z"/>
		<path fill="#FFFFFF" d="M88.3,93.5H61.7V34.3h26V41H69.1v17.6h16.3v6.7H69.1v21.6h19.3V93.5z"/>
		<path fill="#FFFFFF" d="M123.4,34.3v39.9c0,7.3-0.1,10.2-1.4,13.2c-2.7,6.3-9.8,6.9-12.9,6.9c-6.4,0-11-1.9-13.1-6.5
			c-1.2-2.6-1.3-4.3-1.3-13.2V34.3h7.5v43.2c0,5.1,0,10.5,7.1,10.5c6.4,0,6.5-4.4,6.6-7.2c0.1-2.3,0.1-2.8,0.1-7.2V34.3H123.4z"/>
		<path fill="#FFFFFF" d="M160.5,93.5h-8l-9.1-25.6L135,93.5h-7.7l11.3-32.3l-10.6-26.9h8.1l7.1,22.7l6.6-22.7h7.9l-9.7,26.9
			L160.5,93.5z"/>
		<path fill="#E9E9E9" d="M195.9,93.5h-7.8l-10.1-25.9H172v25.9h-7.3V34.3h12.9c7.8,0,15.7,1.3,15.7,16.1c0,4.4-0.6,8.1-1.4,10.3
			c-1.7,4.9-5,5.6-6.5,6L195.9,93.5z M172,61.7c8.3,0,9.5,0,11.1-1.1c2.8-1.9,2.8-6.5,2.8-9.4c0-3.6-0.1-7.4-2.9-9.1
			c-1.8-1.1-3.4-1.1-11-1.1V61.7z"/>
		<path fill="#E9E9E9" d="M227.9,93.5h-26.6V34.3h26V41h-18.6v17.6H225v6.7h-16.3v21.6h19.3V93.5z"/>
		<path fill="#E9E9E9" d="M273.2,93.5h-6.8l1-53.5l-8.8,53.5h-9.3L240.4,40l1.2,53.5h-7.1V34.3h11.1l8.3,52.9l8.1-52.9h11.2V93.5z"
			/>
		<path fill="#E9E9E9" d="M288.9,93.5h-7.3V34.3h7.3V93.5z"/>
		<path fill="#FFFFFF" d="M297.3,93.5V34.3h11.1c5.8,0,11.1,0,14.6,4.4c2.8,3.4,3,6.5,3,20.9c0,3.2,0,7-0.2,15
			c-0.1,5.8-0.3,10-2.3,13.5c-3.4,5.4-8.9,5.4-15.3,5.4H297.3z M304.6,87h4.8c4.7,0,8-0.4,8.9-5.7c0.4-2.8,0.5-11.1,0.5-14.2
			c0-5.4,0-7.5-0.1-13.2c-0.1-6.5-0.2-9.6-2.8-11.5c-1.8-1.3-3.5-1.3-11.3-1.3V87z"/>
		<path fill="#FFFFFF" d="M360.5,93.5h-26.6V34.3h26V41h-18.6v17.6h16.3v6.7h-16.3v21.6h19.3V93.5z"/>
		<path fill="#FFFFFF" d="M395.5,34.3v39.9c0,7.3-0.1,10.2-1.4,13.2c-2.7,6.3-9.8,6.9-12.9,6.9c-6.4,0-11-1.9-13.1-6.5
			c-1.2-2.6-1.3-4.3-1.3-13.2V34.3h7.5v43.2c0,5.1,0,10.5,7.1,10.5c6.4,0,6.5-4.4,6.6-7.2c0.1-2.3,0.1-2.8,0.1-7.2V34.3H395.5z"/>
		<path fill="#FFFFFF" d="M432.7,93.5h-8l-9.1-25.6l-8.5,25.6h-7.7l11.3-32.3l-10.6-26.9h8.1l7.1,22.7l6.6-22.7h7.9l-9.7,26.9
			L432.7,93.5z"/>
	</g>
	<g>
		<path fill="#FFFFFF" d="M140.2,123.3v11.4c0,2.1,0,2.9-0.4,3.8c-0.8,1.8-2.8,2-3.7,2c-1.8,0-3.1-0.6-3.7-1.8
			c-0.3-0.7-0.4-1.2-0.4-3.8v-11.6h2.1v12.4c0,1.5,0,3,2,3c1.8,0,1.9-1.3,1.9-2.1c0-0.7,0-0.8,0-2.1v-11.2H140.2z"/>
		<path fill="#FFFFFF" d="M150.6,140.3h-3l-3.3-14.7l0.3,14.7h-2.1v-17h2.9l3.4,14.9l-0.3-14.9h2V140.3z"/>
		<path fill="#FFFFFF" d="M160.6,140.3h-2.1v-16.9h7.5v1.9h-5.3v5h4.6v1.8h-4.6V140.3z"/>
		<path fill="#FFFFFF" d="M169.6,140.3h-2.1v-16.9h2.1V140.3z"/>
		<path fill="#FFFFFF" d="M179.1,140.3H172v-16.9h2.1v15h5V140.3z"/>
		<path fill="#FFFFFF" d="M191.6,140.3h-1.9l0.3-15.3l-2.5,15.3h-2.7l-2.5-15.3l0.3,15.3h-2v-17h3.2l2.4,15.1l2.3-15.1h3.2V140.3z"
			/>
		<path fill="#FFFFFF" d="M199.5,140.3v-16.9h3.2c1.7,0,3.2,0,4.2,1.3c0.8,1,0.9,1.9,0.9,6c0,0.9,0,2,0,4.3c0,1.7-0.1,2.9-0.7,3.9
			c-1,1.5-2.5,1.5-4.4,1.5H199.5z M201.6,138.4h1.4c1.3,0,2.3-0.1,2.5-1.6c0.1-0.8,0.1-3.2,0.1-4.1c0-1.6,0-2.2,0-3.8
			c0-1.8,0-2.8-0.8-3.3c-0.5-0.4-1-0.4-3.2-0.4V138.4z"/>
		<path fill="#FFFFFF" d="M217.6,140.3H210v-16.9h7.4v1.9h-5.3v5h4.7v1.9h-4.7v6.2h5.5V140.3z"/>
		<path fill="#FFFFFF" d="M227.1,140.3H225v-17h3.5c1.9,0,3,0.1,3.9,1.3c0.8,1.1,0.8,2.1,0.8,3.8c0,2.3-0.4,4-2,4.6
			c-0.8,0.3-1.3,0.3-4,0.3V140.3z M227.1,131.4h1.4c0.9,0,1.5,0,1.9-0.4c0.6-0.5,0.6-1.2,0.6-2.4c0-1.8-0.1-2.6-0.8-3
			c-0.5-0.4-1-0.4-3.2-0.4V131.4z"/>
		<path fill="#FFFFFF" d="M237.1,140.3H235v-16.9h2.1V140.3z"/>
		<path fill="#FFFFFF" d="M247.1,140.3h-7.6v-16.9h7.4v1.9h-5.3v5h4.7v1.9h-4.7v6.2h5.5V140.3z"/>
		<path fill="#FFFFFF" d="M257.9,140.3h-2.2l-2.9-7.4h-1.8v7.4H249v-16.9h3.7c2.2,0,4.5,0.4,4.5,4.6c0,1.3-0.2,2.3-0.4,3
			c-0.5,1.4-1.4,1.6-1.9,1.7L257.9,140.3z M251.1,131.2c2.4,0,2.7,0,3.2-0.3c0.8-0.6,0.8-1.8,0.8-2.7c0-1,0-2.1-0.8-2.6
			c-0.5-0.3-1-0.3-3.1-0.3V131.2z"/>
		<path fill="#FFFFFF" d="M268.4,140.3h-2.2l-2.9-7.4h-1.8v7.4h-2.1v-16.9h3.7c2.2,0,4.5,0.4,4.5,4.6c0,1.3-0.2,2.3-0.4,3
			c-0.5,1.4-1.4,1.6-1.9,1.7L268.4,140.3z M261.5,131.2c2.4,0,2.7,0,3.2-0.3c0.8-0.6,0.8-1.8,0.8-2.7c0-1,0-2.1-0.8-2.6
			c-0.5-0.3-1-0.3-3.1-0.3V131.2z"/>
		<path fill="#FFFFFF" d="M277.6,140.3h-7.6v-16.9h7.4v1.9h-5.3v5h4.7v1.9h-4.7v6.2h5.5V140.3z"/>
		<path fill="#FFFFFF" d="M292,140.3h-7.1v-16.9h2.1v15h5V140.3z"/>
		<path fill="#FFFFFF" d="M301.1,140.3h-7.6v-16.9h7.4v1.9h-5.3v5h4.7v1.9h-4.7v6.2h5.5V140.3z M297.5,121.7h-1.5l1.3-2.6h2.6
			L297.5,121.7z"/>
		<path fill="#FFFFFF" d="M311,136.1c-0.1,2.1-0.6,4.4-4.2,4.4c-0.6,0-1.5,0-2.3-0.5c-1.2-0.6-1.5-1.8-1.6-2.5
			c-0.2-1.2-0.2-3.6-0.2-5.1c0-1.1,0-4.6,0.1-5.5c0.1-0.9,0.4-3.8,4.2-3.8c3.5,0,3.8,2.6,3.9,3.6c0.1,1.4,0.1,4.5,0.1,4.9
			C311.2,132.9,311.1,134.8,311,136.1z M305,135c0,1.6-0.2,3.8,2,3.8c1.8,0,1.9-1.6,1.9-2.7c0.1-1.4,0.1-3.1,0.1-4.5
			c0-1.3,0-2.7,0-4c0-1.1,0-2.7-1.9-2.7c-1.9,0-2,1.8-2,2.7c0,0.8,0,1.1,0,5.2C305,133.9,305,133.9,305,135z"/>
		<path fill="#FFFFFF" d="M321.5,140.3h-3l-3.3-14.7l0.3,14.7h-2.1v-17h2.9l3.4,14.9l-0.3-14.9h2V140.3z"/>
	</g>
	<g>
		<path fill="#FFFFFF" d="M157.4,156.1h2c0,1.8,0,2,0,2.3c0,0.4,0.2,2,2,2c0.7,0,2.1-0.3,2.1-2.1c0-1.3-0.6-2-1.6-3l-2.3-2.4
			c-1.6-1.7-1.9-2.7-1.9-4.2c0-0.9,0-4,3.9-4c0.9,0,2.3,0.1,3.1,1.4c0.5,0.8,0.5,1.4,0.5,3.9h-1.8c0-1.6,0-1.8-0.1-2.1
			c0-0.3-0.3-1.4-1.8-1.4c-1.8,0-1.8,1.5-1.8,2c0,1.3,0.5,1.8,1.7,3l2.1,2.2c1.4,1.5,2,2.4,2,4.3c0,3.6-2.8,4.1-4.1,4.1
			c-1.6,0-2.5-0.6-2.8-0.8c-1.1-0.8-1.3-2.1-1.3-3.4V156.1z"/>
		<path fill="#FFFFFF" d="M175.6,157.8c-0.1,2.1-0.6,4.4-4.2,4.4c-0.6,0-1.5,0-2.3-0.5c-1.2-0.6-1.5-1.8-1.6-2.5
			c-0.2-1.2-0.2-3.6-0.2-5.1c0-1.1,0-4.6,0.1-5.5c0.1-0.9,0.4-3.8,4.2-3.8c3.5,0,3.8,2.6,3.9,3.6c0.1,1.4,0.1,4.5,0.1,4.9
			C175.7,154.6,175.7,156.5,175.6,157.8z M169.5,156.7c0,1.6-0.2,3.8,2,3.8c1.8,0,1.9-1.6,1.9-2.7c0.1-1.4,0.1-3.1,0.1-4.5
			c0-1.3,0-2.7,0-4c0-1.1,0-2.7-1.9-2.7c-1.9,0-2,1.8-2,2.7c0,0.8,0,1.1,0,5.2C169.5,155.6,169.5,155.6,169.5,156.7z"/>
		<path fill="#FFFFFF" d="M186.9,162h-2.2l-2.9-7.4h-1.8v7.4H178V145h3.7c2.2,0,4.5,0.4,4.5,4.6c0,1.3-0.2,2.3-0.4,3
			c-0.5,1.4-1.4,1.6-1.9,1.7L186.9,162z M180.1,152.9c2.4,0,2.7,0,3.2-0.3c0.8-0.6,0.8-1.8,0.8-2.7c0-1,0-2.1-0.8-2.6
			c-0.5-0.3-1-0.3-3.1-0.3V152.9z"/>
		<path fill="#FFFFFF" d="M192.8,162h-2.1v-15h-3.2V145h8.5v1.9h-3.2V162z"/>
		<path fill="#FFFFFF" d="M199.6,162h-2.1V145h2.1V162z"/>
		<path fill="#FFFFFF" d="M209.6,162H202V145h7.4v1.9h-5.3v5h4.7v1.9h-4.7v6.2h5.5V162z"/>
		<path fill="#FFFFFF" d="M224.1,162H217V145h2.1v15h5V162z"/>
		<path fill="#FFFFFF" d="M233.1,162h-7.6V145h7.4v1.9h-5.3v5h4.7v1.9h-4.7v6.2h5.5V162z"/>
		<path fill="#FFFFFF" d="M247.5,162h-7.4v-2l3.5-5.9c1.4-2.5,1.7-3.1,1.7-5c0-0.8,0-2.3-1.6-2.3c-1.5,0-1.5,1.4-1.5,2.4v1.9h-1.9
			V149c0-1.4,0.2-2.4,0.9-3.2c0.5-0.5,1.4-1,2.5-1c1.3,0,2.1,0.5,2.5,1c0.9,0.9,1.1,2,1.1,3.4c0,2.2-0.7,3.6-1.6,5.1l-3.5,5.8h5.3
			V162z"/>
		<path fill="#FFFFFF" d="M266,162h-1.9l0.3-15.3l-2.5,15.3h-2.7l-2.5-15.3L257,162h-2v-17h3.2l2.4,15.1l2.3-15.1h3.2V162z"/>
		<path fill="#FFFFFF" d="M276.8,162h-2.2l-0.6-3.3H270l-0.6,3.3h-2.2l3.6-16.9h2.1L276.8,162z M273.6,156.9l-1.7-8.7l-1.6,8.7
			H273.6z"/>
		<path fill="#FFFFFF" d="M286.9,162h-2.2l-2.9-7.4H280v7.4h-2.1V145h3.7c2.2,0,4.5,0.4,4.5,4.6c0,1.3-0.2,2.3-0.4,3
			c-0.5,1.4-1.4,1.6-1.9,1.7L286.9,162z M280,152.9c2.4,0,2.7,0,3.2-0.3c0.8-0.6,0.8-1.8,0.8-2.7c0-1,0-2.1-0.8-2.6
			c-0.5-0.3-1-0.3-3.1-0.3V152.9z"/>
		<path fill="#FFFFFF" d="M287.9,156.1h2c0,1.8,0,2,0,2.3c0,0.4,0.2,2,2,2c0.7,0,2.1-0.3,2.1-2.1c0-1.3-0.6-2-1.6-3l-2.3-2.4
			c-1.6-1.7-1.9-2.7-1.9-4.2c0-0.9,0-4,3.9-4c0.9,0,2.3,0.1,3.1,1.4c0.5,0.8,0.5,1.4,0.5,3.9H294c0-1.6,0-1.8-0.1-2.1
			c0-0.3-0.3-1.4-1.8-1.4c-1.8,0-1.8,1.5-1.8,2c0,1.3,0.5,1.8,1.7,3l2.1,2.2c1.4,1.5,2,2.4,2,4.3c0,3.6-2.8,4.1-4.1,4.1
			c-1.6,0-2.5-0.6-2.8-0.8c-1.1-0.8-1.3-2.1-1.3-3.4V156.1z"/>
	</g>
</g>
</svg>
