<?xml version="1.0" encoding="utf-8"?>
<!-- Generator: Adobe Illustrator 19.2.1, SVG Export Plug-In . SVG Version: 6.00 Build 0)  -->
<svg version="1.1" id="Calque_1" xmlns="http://www.w3.org/2000/svg" xmlns:xlink="http://www.w3.org/1999/xlink" x="0px" y="0px"
	 viewBox="0 0 1024.4 1034.8" style="enable-background:new 0 0 1024.4 1034.8;" xml:space="preserve">
<style type="text/css">
	.st0{clip-path:url(#SVGID_2_);fill:#FFFFFF;}
	.st1{clip-path:url(#SVGID_4_);fill:#FFFFFF;}
</style>
<g>
	<g>
		<g>
			<defs>
				<rect id="SVGID_1_" x="177.4" y="149.9" width="692" height="729.6"/>
			</defs>
			<clipPath id="SVGID_2_">
				<use xlink:href="#SVGID_1_"  style="overflow:visible;"/>
			</clipPath>
			<path class="st0" d="M832.2,613.9v-80h-59.7v208.2h59.7v-80h37.2v-48.3L832.2,613.9L832.2,613.9z M712.8,745.8
				c-74.8,0-122.7,25.1-122.7,66.7c0,42,47.9,67.1,122.7,67.1c74.4,0,122.3-25.1,122.3-67.1C835.2,770.8,787.3,745.8,712.8,745.8
				 M712.8,833.8c-40.9,0-61.5-5.9-61.5-21.4c0-15.1,20.6-21.4,61.5-21.4c40.5,0,61.2,6.3,61.2,21.4
				C774,827.9,753.4,833.8,712.8,833.8 M756.3,677.6c-30.2,3.7-62.3,5.9-94.3,7v-54.9h-58.6v56.4c-20.3,0.4-39.8,0.4-57.5,0.4
				l5.5,46.4c61.5,0,137.8-1.5,208.6-13.3L756.3,677.6z M739,665.4c7.4-36.1,7.4-66,7.4-89.9v-24.3H565.8V598h122
				c-0.7,18.1-1.8,38.3-6.6,62.6L739,665.4z M463.7,635.6V533.9H404v257.9h59.7v-108h36.8v-48.3L463.7,635.6L463.7,635.6z
				 M286.1,769h-59.7v105.7h248v-46.8H286.1V769z M387.8,693.1c-29.8,4.1-62.3,6.6-94.3,8.5v-60.8h-58.6v62.6
				c-20.6,0.4-40.2,0.4-57.5,0.4l5.2,46.4c59-0.4,137.8-1.8,208.9-15.5L387.8,693.1z M370.2,682.8c7.7-42,7.7-75.9,7.7-101v-23.2
				H197.3v46.8h121.6c-0.4,19.5-1.8,42.4-6.6,70.4L370.2,682.8z"/>
		</g>
	</g>
	<g>
		<g>
			<defs>
				<rect id="SVGID_3_" x="177.4" y="149.9" width="692" height="729.6"/>
			</defs>
			<clipPath id="SVGID_4_">
				<use xlink:href="#SVGID_3_"  style="overflow:visible;"/>
			</clipPath>
			<path class="st1" d="M794.6,495.2H851V149.9h-56.4V495.2z M724.6,264.9h-37.2v47.5h37.2v66.3c-47.5-30.6-58.6-85.9-58.6-140.4
				v-9.2h44.6v-47.5H558.4v47.5h49.7v9.2c0,56.7-12.2,118.3-64.5,151.8l35,43.1c28.7-18.1,47.5-47.9,58.6-82.9
				c11.8,31.7,29.8,58.2,58.2,74.8l29.1-36.5v92.5h55.4V154.3h-55.3L724.6,264.9L724.6,264.9z M496.9,327.9v-46.8H456
				c6.3-34.6,6.3-63,6.3-88.4V164H221.7v46.7h181.7c-0.4,20.6-1.5,43.1-6.6,70.4H184.1v46.8h126.4v40.9h-95.4v46.4h187.2v80.7h59.6
				V368.8h-91.8v-40.9H496.9z"/>
		</g>
	</g>
</g>
</svg>
