<?xml version="1.0" encoding="utf-8"?>
<!-- Generator: Adobe Illustrator 19.2.1, SVG Export Plug-In . SVG Version: 6.00 Build 0)  -->
<svg version="1.1" id="Calque_1" xmlns="http://www.w3.org/2000/svg" xmlns:xlink="http://www.w3.org/1999/xlink" x="0px" y="0px"
	 viewBox="0 0 3264 792" style="enable-background:new 0 0 3264 792;" xml:space="preserve">
<style type="text/css">
	.st0{clip-path:url(#SVGID_2_);fill:#FFFFFF;}
</style>
<g>
	<defs>
		<rect id="SVGID_1_" x="133.1" y="66.2" width="3047.7" height="659.6"/>
	</defs>
	<clipPath id="SVGID_2_">
		<use xlink:href="#SVGID_1_"  style="overflow:visible;"/>
	</clipPath>
	<path class="st0" d="M3011.8,624.5h169v-81.3h-79.2V375.6h-89.8V624.5z M2835.4,533.4l18.2-76.4l19.3,76.4H2835.4z M2719.3,624.2
		h92.9l8.1-31.6h68l8.4,31.6h92.6L2909,376.6h-108.7L2719.3,624.2z M2449.1,625.2h85.9l-0.4-9.5v-25.2l0.4-18.9v-29.1v-14.4l-0.7-13
		l-1.1-13.7l17.5,28.4l17.9,28.1l22.1,34l22.8,33.7h85.9v-250h-85.2v124.8l-13.7-23.1c-5.6-9.8-10.2-16.8-13.7-22.4l-2.8-4.2
		l-12.6-17.2l-5.6-8.1l-11.2-17.9l-10.9-15.8l-10.9-15.8h-83.8V625.2z M2235.9,496.9c1.1-15.4,7.7-28.1,19.3-36.8
		c2.1-1.1,4.2-2.5,6.7-3.9c7.4-3.9,15.4-5.6,22.8-4.9c8.1,0.4,16.5,3.9,23.1,8.8c9.5,7.7,16.1,19.3,17.9,33v9.8
		c-0.7,15.4-8.4,29.1-20,37.2c-8.4,6.3-18.6,9.5-28,8.8c-8.4-0.4-16.5-3.5-23.5-9.1C2242.2,530.5,2235.2,515.1,2235.9,496.9
		 M2146.1,497.6c0,8.8,0.7,17.5,2.5,25.9c11.2,62.8,59.3,104.1,127.3,106.2c70.8,2.8,122.4-36.8,136.4-98.9
		c2.1-7.7,3.2-15.4,3.5-23.8c0.4-8.4,0-16.5-1.4-24.9c-9.5-64.5-58.2-109-126.9-112.6c-71.5-3.2-125.5,38.9-138.5,103.4
		C2147.2,481.5,2146.5,489.5,2146.1,497.6 M2024.7,625.6h91.2V375.9h-91.2V625.6z M1806,449.6h49.4v175.3h91.2V449.6h49.1v-73.6
		H1806V449.6z M1656.4,533.4l18.2-76.4l19.3,76.4H1656.4z M1540.4,624.2h92.9l8.1-31.6h68l8.4,31.6h92.6l-80.3-247.5h-108.7
		L1540.4,624.2z M1270.2,625.2h85.9l-0.4-9.5v-25.2l0.4-18.9v-29.1v-14.4l-0.7-13l-1.1-13.7l17.5,28.4l17.9,28.1l22.1,34l22.8,33.7
		h85.9v-250h-85.2v124.8l-13.7-23.1c-5.6-9.8-10.2-16.8-13.7-22.4l-2.8-4.2l-12.6-17.2l-5.6-8.1l-11.2-17.9l-10.9-15.8l-10.9-15.8
		h-83.8V625.2z M1103,485.3v-42.1c1.4-0.4,2.8-0.7,4.2-0.7c23.5-2.1,34.4,5.6,36.1,17.9c0.4,1.1,0.4,2.1,0.4,3.2
		c-0.4,5.3-2.8,10.5-7.4,15.1c-4.6,4.6-9.1,6.3-20.7,6.7h-6.3H1103z M1018.1,624.2h84.9v-93.6l47,94h95.7l-59.3-98.2
		c1.8-1.1,3.2-1.8,4.9-2.5c27-14,38.9-31.6,40-60c1.4-32.6-12.6-58.2-37.9-72.9c-10.9-6.7-26.3-11.2-50.5-13.3
		c-4.2-0.7-8.4-0.7-12.6-0.7h-112.2V624.2z M806.4,624.9h170.1v-69.4h-85.9v-24.2H967v-65.6h-76.4V445h83.1v-68.7H806.4V624.9z
		 M590,449.6h49.4v175.3h91.2V449.6h49.1v-73.6H590V449.6z M312.8,625.2h85.9l-0.4-9.5v-25.2l0.4-18.9v-29.1v-14.4l-0.7-13
		l-1.1-13.7l17.5,28.4l17.9,28.1l22.1,34l22.8,33.7h85.9v-250H478v124.8l-13.7-23.1c-5.6-9.8-10.2-16.8-13.7-22.4l-2.8-4.2
		l-12.6-17.2l-5.6-8.1l-11.2-17.9l-10.9-15.8l-10.9-15.8h-83.8V625.2z M180.4,625.6h91.2V375.9h-91.2V625.6z"/>
	<path class="st0" d="M1823.5,321.6h170.1v-69.4h-85.9V228h76.4v-65.6h-76.4v-20.7h83.1V73h-167.3V321.6z M1456,320.6h91.5
		l11.9-134.6l41.4,135.3h52.9l44.2-136.4l10.9,136.7h90.1l-32.6-248.2h-102.7L1628.1,194L1592,73h-102.7L1456,320.6z M1241.1,298.5
		l11.9,6l11.9,6c20,8.8,42.4,14.7,65.6,16.1c51.2,3.5,91.2-18.9,106.9-52.2c7-14.7,10.2-30.2,9.1-43.8c-0.4-3.5-1.1-7-1.8-10.5
		c-7-27.7-23.1-43.5-55.8-52.6c-2.8-0.7-5.3-1.4-8.1-2.1l-7.7-2.1l-12.3-3.5l-9.1-2.1c-0.7-0.3-1.8-0.7-2.1-1.1
		c-4.9-2.8-7.4-6.7-7.4-9.5c-0.4-2.5,2.1-6.7,7.4-9.8c3.2-2.1,7.7-3.5,12.3-3.2c9.5,0,23.1,3.9,44.5,14c3.2,1.4,6.7,3.2,9.5,4.9
		l25.2-63.5l-14-6.3c-23.5-10.5-42.4-15.4-67.7-16.8c-24.9-1.1-45.9,3.9-61.7,13c-18.2,10.9-31.2,24.9-38.6,40.7
		c-5.3,12.3-8.4,25.2-8.1,36.5c0,3.9,0.7,8.1,1.4,11.6c5.6,28.8,22.4,45.6,56.5,55.4c4.6,1.1,9.8,2.1,14.4,3.2
		c15.1,2.8,20.3,4.2,22.4,5.3c3.2,1.4,4.9,3.2,6,4.9c1.1,2.1,1.8,4.2,1.8,6c-0.4,3.9-2.8,7.7-8.8,11.2c-3.5,2.1-9.1,3.5-14.4,3.5
		c-12.6,0-28.4-4.9-51.2-19.3c-3.2-2.1-6.7-4.6-10.2-7L1241.1,298.5z M1131.7,322.3h91.2V72.7h-91.2V322.3z M968.3,182.1V140
		c1.4-0.4,2.8-0.7,4.2-0.7c23.5-2.1,34.4,5.6,36.1,17.9c0.4,1.1,0.4,2.1,0.4,3.2c-0.4,5.3-2.8,10.5-7.4,15.1
		c-4.6,4.6-9.1,6.3-20.7,6.7h-6.3H968.3z M883.4,320.9h84.9v-93.6l47,94h95.7l-59.3-98.2c1.8-1.1,3.2-1.8,4.9-2.5
		c27-14,38.9-31.6,40-60c1.4-32.6-12.6-58.2-37.9-72.9c-10.9-6.7-26.3-11.2-50.5-13.3c-4.2-0.7-8.4-0.7-12.6-0.7H883.4V320.9z
		 M620.4,220.3c0,3.2,0.4,7,1.4,15.4c5.6,56.8,42.1,90.1,111.5,91.2c68,1.8,107.6-31.9,114.7-84.9c1.1-7.7,1.4-12.6,1.4-16.5V72.7
		h-91.5v138.5v11.9c-0.7,6.3-2.8,11.9-6.7,15.4c-4.6,5.6-11.2,8.4-16.1,8.8c-5.6,0-11.6-2.5-16.8-7.4c-3.9-3.9-6-8.4-7-15.4
		c0-1.4,0-2.8-0.3-3.9v-2.1V73h-90.5V220.3z M417.8,193.7c1.1-15.4,7.7-28,19.3-36.8c2.1-1.1,4.2-2.5,6.7-3.9
		c7.4-3.9,15.4-5.6,22.8-4.9c8.1,0.4,16.5,3.9,23.1,8.8c9.5,7.7,16.1,19.3,17.9,33v9.8c-0.7,15.4-8.4,29.1-20,37.2
		c-8.4,6.3-18.6,9.5-28.1,8.8c-8.4-0.4-16.5-3.5-23.5-9.1C424.1,227.3,417.1,211.9,417.8,193.7 M328,194.4c0,8.8,0.7,17.5,2.5,25.9
		c11.2,62.8,59.3,104.1,127.3,106.2c70.8,2.8,122.4-36.8,136.4-98.9c2.1-7.7,3.2-15.4,3.5-23.8c0.4-8.4,0-16.5-1.4-24.9
		c-9.5-64.5-58.2-109-126.9-112.6c-71.5-3.2-125.5,38.9-138.5,103.4C329.1,178.2,328.4,186.3,328,194.4 M133.1,146.3h49.4v175.3
		h91.2V146.3h49.1V72.7H133.1V146.3z"/>
	<path class="st0" d="M3089.9,280.1h-15.1v42.6h15.1v-17.2c0-7.3,2.1-12.9,10.5-12.9c2.3,0,4.3,0.2,6.4,1.4v-14.5h-2.9
		c-5.9,0-10.9,2.3-13.8,7.6h-0.2V280.1z M3069.5,302.3c0-14.5-8.5-23.7-23.3-23.7c-13.9,0-23.6,8.5-23.6,22.7
		c0,14.7,10.5,22.7,24.7,22.7c9.7,0,19.3-4.6,21.7-14.6h-14.5c-1.7,2.8-4,3.9-7.2,3.9c-6.2,0-9.5-3.3-9.5-9.5h31.8V302.3z
		 M3038,295.2c0.9-4.4,4.6-6.7,9-6.7c4.1,0,7.8,2.7,8.5,6.7H3038z M3009.9,255.2c-4.6,0-8.5,3.8-8.5,8.5s3.8,8.5,8.5,8.5
		s8.5-3.8,8.5-8.5S3014.6,255.2,3009.9,255.2 M3017.5,280.1h-15.1v42.6h15.1V280.1z M2964.3,280.1h-15.1v42.6h15.1v-22.1
		c0-5.3,1.7-9.9,7.9-9.9c7.5,0,6.8,7.1,6.8,11.2v20.8h15.1v-26.3c0-10.5-4.6-17.7-16-17.7c-5.9,0-10.1,1.7-13.6,6.9h-0.2V280.1z
		 M2917.1,291.4c6.1,0,9.7,4.4,9.7,9.6c0,5.4-3.6,9.5-9.7,9.5s-9.7-4.1-9.7-9.5C2907.3,295.8,2910.9,291.4,2917.1,291.4
		 M2941.4,280.1h-15.1v4.5h-0.2c-3-4.2-7.6-5.9-12.5-5.9c-13,0-21.8,10.6-21.8,23.1c0,12.3,8.6,21.7,21,21.7c5.6,0,9.6-1.9,13.5-5.8
		v2c0,6.9-1.6,12.2-9.7,12.2c-1.4,0-3-0.3-4.3-1c-1.3-0.7-2.4-1.7-2.8-3.2h-16.9c1.3,11.2,14.4,16.3,24.2,16.3
		c15.7,0,24.7-7.3,24.7-25.4V280.1z M2878.8,255.2c-4.6,0-8.5,3.8-8.5,8.5s3.8,8.5,8.5,8.5s8.5-3.8,8.5-8.5
		S2883.4,255.2,2878.8,255.2 M2886.3,280.1h-15.1v42.6h15.1V280.1z M2840.4,291.8c6.1,0,9.7,4.4,9.7,9.6c0,5.4-3.6,9.5-9.7,9.5
		s-9.7-4.1-9.7-9.5C2830.7,296.2,2834.3,291.8,2840.4,291.8 M2840.4,278.6c-13.7,0-25.6,8.2-25.6,22.7s12,22.7,25.6,22.7
		c13.7,0,25.6-8.2,25.6-22.7C2866.1,286.9,2854.1,278.6,2840.4,278.6 M2774,260.1h-17.7l26.3,62.6h12.6l26.7-62.6h-17.7l-15.2,38
		L2774,260.1z M2730.6,302.3c0-14.5-8.5-23.7-23.3-23.7c-13.9,0-23.6,8.5-23.6,22.7c0,14.7,10.5,22.7,24.7,22.7
		c9.7,0,19.3-4.6,21.7-14.6h-14.5c-1.7,2.8-4,3.9-7.2,3.9c-6.2,0-9.5-3.3-9.5-9.5h31.8V302.3z M2699,295.2c0.9-4.4,4.6-6.7,9-6.7
		c4.1,0,7.8,2.7,8.5,6.7H2699z M2671,255.2c-4.6,0-8.5,3.8-8.5,8.5s3.8,8.5,8.5,8.5c4.6,0,8.5-3.8,8.5-8.5S2675.6,255.2,2671,255.2
		 M2678.5,280.1h-15.1v42.6h15.1V280.1z M2640.9,280.1h-15.1v42.6h15.1v-17.2c0-7.3,2.1-12.9,10.5-12.9c2.3,0,4.3,0.2,6.4,1.4v-14.5
		h-2.9c-5.9,0-10.9,2.3-13.8,7.6h-0.2V280.1z M2618.3,280.1h-15.1v4.2c-3.2-3.7-8.3-5.6-13.2-5.6c-12.6,0-21.3,10.5-21.3,22.7
		s8.9,22.7,21.5,22.7c5,0,10.2-1.9,12.9-6.1h0.2v4.7h15.1V280.1z M2593.9,291.8c6.1,0,9.7,4.4,9.7,9.6c0,5.4-3.6,9.5-9.7,9.5
		c-6.1,0-9.7-4.1-9.7-9.5C2584.2,296.2,2587.8,291.8,2593.9,291.8 M2487.5,322.6h16.2l5.2-36h0.2l14.4,36h6.5l15-36h0.2l4.6,36h16.3
		l-9.5-62.6h-16.2l-13.4,33.4l-12.7-33.4h-16L2487.5,322.6z M2458.9,302.3c0-14.5-8.5-23.7-23.3-23.7c-13.9,0-23.6,8.5-23.6,22.7
		c0,14.7,10.5,22.7,24.7,22.7c9.7,0,19.3-4.6,21.7-14.6h-14.5c-1.7,2.8-4,3.9-7.2,3.9c-6.2,0-9.5-3.3-9.5-9.5h31.8V302.3z
		 M2427.4,295.2c0.9-4.4,4.6-6.7,9-6.7c4.1,0,7.8,2.7,8.5,6.7H2427.4z M2383,291.8c6.1,0,9.7,4.4,9.7,9.6c0,5.4-3.6,9.5-9.7,9.5
		s-9.7-4.1-9.7-9.5C2373.3,296.2,2376.9,291.8,2383,291.8 M2392.3,322.6h15.1v-68.9h-15.1v30.5c-3.2-3.7-8.3-5.6-13.2-5.6
		c-12.6,0-21.3,10.5-21.3,22.7s8.9,22.7,21.5,22.7c5,0,10.2-1.9,12.9-6.1h0.2V322.6z M2268.1,280.1H2253v42.6h15.1v-20.3
		c0-4.7,0-12,6.7-12c6.7,0,6.7,7.2,6.7,12v20.3h15.1v-20.3c0-5.1,0.2-11.6,7.2-11.6c6.4,0,6.2,7.2,6.2,11.6v20.3h15.1v-27.1
		c0-9.8-3.7-16.8-14.5-16.8c-5.8,0-11.5,2.8-14.4,8.1c-3.1-5.6-8.4-8.1-14.5-8.1c-5.5,0-9.9,2-13.4,6.7h-0.2V280.1z M2244.7,253.7
		h-15.1v68.9h15.1V253.7z M2212.9,255.2c-4.6,0-8.5,3.8-8.5,8.5s3.8,8.5,8.5,8.5s8.5-3.8,8.5-8.5S2217.5,255.2,2212.9,255.2
		 M2220.4,280.1h-15.1v42.6h15.1V280.1z M2190.2,292.5h10.5v-12.5h-10.5v-6.9c0-4.8,1.3-7.1,5.2-7.1c2,0,3.6,0.7,5.3,1.4v-13
		c-2.1-1.1-4.1-1.5-6.5-1.5c-5.7,0-11.1,2.4-14.9,6.8c-4.1,4.7-4.3,9-4.3,14.9v5.4h-5.3v12.5h5.3v30.1h15.1V292.5z M2109.1,280.1
		H2094v42.6h15.1v-22.1c0-5.3,1.7-9.9,7.9-9.9c7.5,0,6.8,7.1,6.8,11.2v20.8h15.1v-26.3c0-10.5-4.6-17.7-16-17.7
		c-5.9,0-10.1,1.7-13.6,6.9h-0.2V280.1z M2041.6,280.1v25.6c0,14,9.9,18.3,22.7,18.3s22.7-4.3,22.7-18.3v-25.6h-15.1v22.7
		c0,5.4-1.3,9.2-7.6,9.2c-6.2,0-7.6-3.8-7.6-9.2v-22.7H2041.6z"/>
	<path class="st0" d="M986.4,704c0-14.5-8.5-23.7-23.3-23.7c-13.9,0-23.6,8.5-23.6,22.7c0,14.7,10.5,22.7,24.7,22.7
		c9.7,0,19.3-4.6,21.7-14.6h-14.5c-1.7,2.8-4,3.9-7.2,3.9c-6.2,0-9.5-3.3-9.5-9.5h31.8V704z M954.8,696.9c0.9-4.4,4.6-6.7,9-6.7
		c4.1,0,7.8,2.7,8.5,6.7H954.8z M921.8,681.8h-15.1v42.6h15.1v-17.2c0-7.3,2.1-12.9,10.5-12.9c2.3,0,4.3,0.2,6.4,1.4v-14.5h-2.9
		c-5.9,0-10.9,2.3-13.8,7.6h-0.2V681.8z M875.6,693.5c6.1,0,9.7,4.4,9.7,9.6c0,5.4-3.6,9.5-9.7,9.5c-6.1,0-9.7-4.2-9.7-9.5
		C865.8,697.9,869.4,693.5,875.6,693.5 M851.2,724.4h15.1v-4.7h0.2c2.7,4.2,7.9,6.1,12.9,6.1c12.7,0,21.5-10.5,21.5-22.7
		c0-12.2-8.7-22.7-21.3-22.7c-4.9,0-10,1.8-13.2,5.6v-30.5h-15.1V724.4z M820.9,693.5c6.1,0,9.7,4.4,9.7,9.6c0,5.4-3.6,9.5-9.7,9.5
		c-6.1,0-9.7-4.2-9.7-9.5C811.2,697.9,814.8,693.5,820.9,693.5 M820.9,680.4c-13.7,0-25.6,8.2-25.6,22.7c0,14.5,12,22.7,25.6,22.7
		c13.7,0,25.6-8.2,25.6-22.7C846.6,688.6,834.6,680.4,820.9,680.4 M786.7,694.2h8.5v-12.5h-8.5V669h-15.1v12.8h-4.9v12.5h4.9v30.1
		h15.1V694.2z M761.7,682.9c-3-1.7-6.5-2.5-10-2.5c-13.4,0-23.8,9.5-23.8,23.2c0,12.9,10.5,22.2,23.2,22.2c3.7,0,7.3-0.7,10.6-2.4
		v-12.8c-2,1.8-4.9,2.9-7.6,2.9c-6.2,0-10.6-4.3-10.6-10.5c0-5.9,4.6-10.4,10.4-10.4c2.9,0,5.6,1.3,7.8,3V682.9z M699.3,693.5
		c6.1,0,9.7,4.4,9.7,9.6c0,5.4-3.6,9.5-9.7,9.5c-6.1,0-9.7-4.2-9.7-9.5C689.6,697.9,693.2,693.5,699.3,693.5 M699.3,680.4
		c-13.7,0-25.6,8.2-25.6,22.7c0,14.5,12,22.7,25.6,22.7c13.7,0,25.6-8.2,25.6-22.7C725,688.6,713,680.4,699.3,680.4 M618.7,672.2
		c5.7,0,10.4,4.6,10.4,10.3s-4.6,10.3-10.4,10.3c-5.7,0-10-4.6-10-10.3S612.9,672.2,618.7,672.2 M621.4,724.4l13.4-17.5
		c5.4-7.1,10-15.9,10-24.9c0-6.6-3.3-13.2-8.4-17.3c-4.8-3.9-11.8-5.4-17.8-5.4c-14.3,0-26.9,8.3-26.9,23.7
		c0,11.5,7.8,22.1,20.1,22.1c3.3,0,6-0.7,8.8-1.9l0.2,0.2l-17.8,21.1H621.4z M564.3,675.6v48.8h16.3v-62.6h-25.2v13.8H564.3z
		 M514.9,704c0-14.5-8.5-23.7-23.3-23.7c-13.9,0-23.6,8.5-23.6,22.7c0,14.7,10.5,22.7,24.7,22.7c9.7,0,19.3-4.6,21.7-14.6h-14.5
		c-1.7,2.8-4,3.9-7.2,3.9c-6.2,0-9.5-3.3-9.5-9.5h31.8V704z M483.4,696.9c0.9-4.4,4.6-6.7,9-6.7c4.1,0,7.8,2.7,8.5,6.7H483.4z
		 M462.9,655.5h-15.1v68.9h15.1V655.5z M415.7,704c0-14.5-8.5-23.7-23.3-23.7c-13.9,0-23.6,8.5-23.6,22.7
		c0,14.7,10.5,22.7,24.7,22.7c9.7,0,19.3-4.6,21.7-14.6h-14.5c-1.7,2.8-4,3.9-7.2,3.9c-6.2,0-9.5-3.3-9.5-9.5h31.8V704z
		 M384.2,696.9c0.9-4.4,4.6-6.7,9-6.7c4.1,0,7.8,2.7,8.5,6.7H384.2z M356.2,657c-4.6,0-8.5,3.8-8.5,8.5c0,4.6,3.8,8.5,8.5,8.5
		c4.6,0,8.5-3.8,8.5-8.5C364.6,660.8,360.8,657,356.2,657 M363.7,681.8h-15.1v42.6h15.1V681.8z M334.4,694.2h8.5v-12.5h-8.5V669
		h-15.1v12.8h-4.9v12.5h4.9v30.1h15.1V694.2z M292.9,681.8h-15.1v42.6h15.1v-17.2c0-7.3,2.1-12.9,10.5-12.9c2.3,0,4.3,0.2,6.4,1.4
		v-14.5h-2.9c-5.9,0-10.9,2.3-13.8,7.6h-0.2V681.8z M247.8,693.5c6.1,0,9.7,4.4,9.7,9.6c0,5.4-3.6,9.5-9.7,9.5s-9.7-4.2-9.7-9.5
		C238.1,697.9,241.7,693.5,247.8,693.5 M247.8,680.4c-13.7,0-25.6,8.2-25.6,22.7c0,14.5,12,22.7,25.6,22.7
		c13.7,0,25.6-8.2,25.6-22.7C273.5,688.6,261.5,680.4,247.8,680.4 M217.6,683.1c-4.4-2-9.2-2.7-14-2.7c-9.3,0-18.8,4.6-18.8,15.1
		c0,7.6,4.7,10,9.5,11.2s9.5,1.4,9.5,4.7c0,2.3-2.8,3.2-4.7,3.2c-3.7,0-8.9-2.2-12-4.3l-5.5,10.5c5.1,3.2,11.1,4.9,17.2,4.9
		c9.9,0,20.1-4.6,20.1-15.9c0-7.9-5.3-11.2-12.4-12.6c-2.1-0.4-6.8-0.8-6.8-3.7c0-2.2,3-2.9,4.7-2.9c2.6,0,5.8,0.8,8.1,2.1
		L217.6,683.1z"/>
</g>
</svg>
