<svg id="Calque_1" data-name="Calque 1" xmlns="http://www.w3.org/2000/svg" viewBox="0 0 126.67 36.56"><defs><style>.cls-1{fill:#fff;}</style></defs><title>villeperdue-infos</title><path class="cls-1" d="M37.12,10.39c-2.79,0-3.94-1.12-3.94-3.69V0.58h2.7V6.46c0,1.33.3,1.92,1.54,1.92S39,7.79,39,6.46V0.58h2.11V6.69C41.08,9.27,39.91,10.39,37.12,10.39Z" transform="translate(-1 -0.46)"/><path class="cls-1" d="M42.35,3.4h2.32v1A3.66,3.66,0,0,1,47,3.32c1.27,0,1.75.73,1.75,2.24v4.6H46.42v-4c0-.82-0.09-1.21-0.65-1.21a1.9,1.9,0,0,0-1.09.57v4.65H42.35V3.4Z" transform="translate(-1 -0.46)"/><path class="cls-1" d="M54.8,4.89H53.89V3.4h1c0-.21,0-0.43,0-0.62,0-1.7.48-2.32,2-2.32a5.82,5.82,0,0,1,1.33.16V2.1a1.77,1.77,0,0,0-.35,0c-0.46,0-.69.16-0.69,0.52V3.4h1V4.89H57.12v5.26H54.8V4.89Zm4.13-4.31h2.27V2.51H58.94V0.58Zm0,2.83h2.27v6.74H58.94V3.4Z" transform="translate(-1 -0.46)"/><path class="cls-1" d="M62.45,0.58h2.4v9.57h-2.4V0.58Z" transform="translate(-1 -0.46)"/><path class="cls-1" d="M66,3.4h2.29v1a3.64,3.64,0,0,1,2.34-1.07,1.59,1.59,0,0,1,1.63,1.07,3.66,3.66,0,0,1,2.34-1.07c1.27,0,1.75.73,1.75,2.24v4.6h-2.3v-4c0-.82-0.09-1.21-0.65-1.21a1.9,1.9,0,0,0-1.09.57v4.65H70.06v-4c0-.82-0.09-1.21-0.65-1.21a1.9,1.9,0,0,0-1.09.57v4.65H66V3.4Z" transform="translate(-1 -0.46)"/><path class="cls-1" d="M88.75,10.15H86.29V9.48a3,3,0,0,1-1.95.82C82.84,10.3,81.8,9,81.8,6.83s1.09-3.52,2.6-3.52a2.58,2.58,0,0,1,1.9.85V0.58h2.36V9.45A2.57,2.57,0,0,0,88.75,10.15Zm-2.46-4.9a1.22,1.22,0,0,0-.92-0.52c-0.79,0-1.09.67-1.09,2.07s0.29,2,1.05,2a1.23,1.23,0,0,0,1-.48V5.25Z" transform="translate(-1 -0.46)"/><path class="cls-1" d="M93.07,10.36a3.31,3.31,0,0,1-3.57-3.5,3.37,3.37,0,0,1,3.57-3.6,3.28,3.28,0,0,1,3.44,3.62c0,0.13,0,.25,0,0.39H92v0a1.33,1.33,0,0,0,1.44,1.47,1.59,1.59,0,0,0,1.51-.94l1.51,0.69A3.55,3.55,0,0,1,93.07,10.36ZM94.14,6a1.11,1.11,0,0,0-1.07-1.32c-0.65,0-1,.45-1,1.32h2.1Z" transform="translate(-1 -0.46)"/><path class="cls-1" d="M1.2,21.36a4.18,4.18,0,0,0,.75.09c0.84,0,1-.38,1-1.36v-6.2h2.7v6.67a3.16,3.16,0,0,1-.58,2.35,3,3,0,0,1-2.4.79A6.69,6.69,0,0,1,1,23.51Z" transform="translate(-1 -0.46)"/><path class="cls-1" d="M13.27,22.76a2.27,2.27,0,0,0,.1.7H10.95V22.54A3.69,3.69,0,0,1,8.6,23.61c-1.27,0-1.73-.73-1.73-2.24V16.72H9.19v4.07c0,0.82.1,1.21,0.67,1.21a1.9,1.9,0,0,0,1.09-.57V16.72h2.32v6Z" transform="translate(-1 -0.46)"/><path class="cls-1" d="M14.49,13.89h2.4v9.57h-2.4V13.89Z" transform="translate(-1 -0.46)"/><path class="cls-1" d="M18.07,13.89h2.35v1.93H18.07V13.89Zm0,2.83h2.35v6.74H18.07V16.72Z" transform="translate(-1 -0.46)"/><path class="cls-1" d="M24.85,23.67a3.31,3.31,0,0,1-3.57-3.5,3.37,3.37,0,0,1,3.57-3.6,3.28,3.28,0,0,1,3.44,3.62c0,0.13,0,.25,0,0.39H23.77v0a1.33,1.33,0,0,0,1.44,1.47,1.59,1.59,0,0,0,1.51-.94l1.51,0.69A3.55,3.55,0,0,1,24.85,23.67Zm1.07-4.38A1.11,1.11,0,0,0,24.85,18c-0.65,0-1,.45-1,1.32h2.1Z" transform="translate(-1 -0.46)"/><path class="cls-1" d="M29.17,16.72h2.32v1a3.66,3.66,0,0,1,2.34-1.07c1.27,0,1.75.73,1.75,2.24v4.6H33.24v-4c0-.82-0.09-1.21-0.65-1.21a1.9,1.9,0,0,0-1.09.57v4.65H29.17V16.72Z" transform="translate(-1 -0.46)"/><path class="cls-1" d="M45.3,23.7c-2.65,0-4.28-1.87-4.28-4.86,0-3.2,1.71-5.11,4.52-5.11A4,4,0,0,1,49.74,17l-2.61.43a1.63,1.63,0,0,0-1.58-1.76c-1.17,0-1.68,1-1.68,3.06s0.45,3.06,1.68,3.06a1.48,1.48,0,0,0,1.62-1.36H45.61V18.73h4.12v4.74H48.89l-0.75-.9A3.46,3.46,0,0,1,45.3,23.7Z" transform="translate(-1 -0.46)"/><path class="cls-1" d="M56.83,23.46H54.5a1.64,1.64,0,0,1-.09-0.58,3.3,3.3,0,0,1-2.08.73,1.79,1.79,0,0,1-1.87-1.92c0-1.57,1.36-2.46,4-2.47V18.63a0.65,0.65,0,0,0-.78-0.6,0.89,0.89,0,0,0-.9.8l-2-.43c0.38-1.21,1.33-1.77,2.94-1.77,2,0,3,.64,3,2v4.12A2.57,2.57,0,0,0,56.83,23.46Zm-2.41-3.08c-1.08.06-1.65,0.43-1.65,1a0.66,0.66,0,0,0,.72.74,1.54,1.54,0,0,0,.93-0.34V20.38Z" transform="translate(-1 -0.46)"/><path class="cls-1" d="M58.84,21.29a2.24,2.24,0,0,0,1.9.94c0.62,0,1-.25,1-0.58,0-.53-0.64-0.44-1.63-0.62-1.66-.3-2.45-1-2.45-2.11,0-1.39,1.08-2.36,2.94-2.36a3.38,3.38,0,0,1,2.89,1.29l-1.39.87a1.86,1.86,0,0,0-1.51-.78,0.73,0.73,0,0,0-.88.53c0,0.45.67,0.44,2.16,0.74s2,0.89,2,2c0,1.56-1.13,2.42-3.24,2.42a3.38,3.38,0,0,1-3.14-1.47Z" transform="translate(-1 -0.46)"/><path class="cls-1" d="M64.66,16.72H67v0.72a2.31,2.31,0,0,1,1.8-.8c1.61,0,2.74,1.31,2.74,3.3,0,2.4-1,3.68-2.76,3.68A2.38,2.38,0,0,1,67,22.86v2.9H64.66v-9Zm3.27,5.44c0.72,0,1.16-.74,1.16-2S68.7,18,68,18a1.23,1.23,0,0,0-1,.53v3.08A1.33,1.33,0,0,0,67.93,22.16Z" transform="translate(-1 -0.46)"/><path class="cls-1" d="M78.35,23.46H76a1.64,1.64,0,0,1-.09-0.58,3.3,3.3,0,0,1-2.08.73A1.79,1.79,0,0,1,72,21.69c0-1.57,1.36-2.46,4-2.47V18.63a0.65,0.65,0,0,0-.78-0.6,0.89,0.89,0,0,0-.9.8l-2-.43c0.38-1.21,1.33-1.77,2.94-1.77,2,0,3,.64,3,2v4.12A2.57,2.57,0,0,0,78.35,23.46Zm-2.41-3.08c-1.08.06-1.65,0.43-1.65,1a0.66,0.66,0,0,0,.72.74,1.54,1.54,0,0,0,.93-0.34V20.38Z" transform="translate(-1 -0.46)"/><path class="cls-1" d="M79.4,16.72h2.36v1a3.16,3.16,0,0,1,2.39-1.19v2.51a2.87,2.87,0,0,0-1.32-.31,1.39,1.39,0,0,0-1.07.45v4.25H79.4V16.72Z" transform="translate(-1 -0.46)"/><path class="cls-1" d="M84.6,19.13h3.68v2H84.6v-2Z" transform="translate(-1 -0.46)"/><path class="cls-1" d="M93.71,13.73c2.73,0,4.53,1.95,4.53,5s-1.81,5-4.53,5-4.53-1.95-4.53-5S91,13.73,93.71,13.73Zm0,8c1.12,0,1.68-1,1.68-3s-0.57-3-1.68-3-1.68,1-1.68,3S92.6,21.72,93.71,21.72Z" transform="translate(-1 -0.46)"/><path class="cls-1" d="M99.21,13.89h2.4v9.57h-2.4V13.89Z" transform="translate(-1 -0.46)"/><path class="cls-1" d="M102.79,13.89h2.35v1.93h-2.35V13.89Zm0,2.83h2.35v6.74h-2.35V16.72Z" transform="translate(-1 -0.46)"/><path class="cls-1" d="M105.47,16.72h2.45l1.28,3.63,1.37-3.63h1.73l-2.55,6.74H108Z" transform="translate(-1 -0.46)"/><path class="cls-1" d="M115.64,23.67a3.31,3.31,0,0,1-3.57-3.5,3.37,3.37,0,0,1,3.57-3.6,3.28,3.28,0,0,1,3.44,3.62c0,0.13,0,.25,0,0.39h-4.51v0A1.33,1.33,0,0,0,116,22.08a1.59,1.59,0,0,0,1.51-.94L119,21.83A3.55,3.55,0,0,1,115.64,23.67Zm1.07-4.38A1.11,1.11,0,0,0,115.64,18c-0.65,0-1,.45-1,1.32h2.1Z" transform="translate(-1 -0.46)"/><path class="cls-1" d="M119.95,16.72h2.36v1a3.16,3.16,0,0,1,2.39-1.19v2.51a2.87,2.87,0,0,0-1.32-.31,1.4,1.4,0,0,0-1.07.45v4.25h-2.36V16.72Z" transform="translate(-1 -0.46)"/><path class="cls-1" d="M125.33,13.89h2.35v1.93h-2.35V13.89Zm0,2.83h2.35v6.74h-2.35V16.72Z" transform="translate(-1 -0.46)"/><path class="cls-1" d="M13,33.87a3.36,3.36,0,0,0,2.47,1.18c0.92,0,1.46-.39,1.46-0.92,0-.69-0.88-0.7-2.52-1.12s-2.66-1.42-2.66-2.8c0-1.87,1.47-3.18,3.87-3.18a4.17,4.17,0,0,1,3.47,1.52L17.54,29.9a2.45,2.45,0,0,0-2-1,1,1,0,0,0-1.18.77c0,0.69.94,0.72,2.68,1.17s2.56,1.33,2.56,2.83c0,2-1.58,3.3-4.23,3.3a4.93,4.93,0,0,1-4.06-1.85Z" transform="translate(-1 -0.46)"/><path class="cls-1" d="M23.67,29.88a3.55,3.55,0,0,1,0,7.1A3.55,3.55,0,0,1,23.67,29.88Zm0,5.5c0.75,0,1.07-.65,1.07-2s-0.31-2-1.07-2-1.07.64-1.07,2S22.92,35.38,23.67,35.38Z" transform="translate(-1 -0.46)"/><path class="cls-1" d="M28.05,30h2.36v1a3.16,3.16,0,0,1,2.39-1.19v2.51a2.87,2.87,0,0,0-1.32-.31,1.39,1.39,0,0,0-1.07.45v4.25H28.05V30Z" transform="translate(-1 -0.46)"/><path class="cls-1" d="M36.24,36.94c-1.49,0-2.22-.57-2.22-1.76V31.51H33.09V30h1l0.18-2.39h2V30h1.23v1.48H36.32v3.1a0.54,0.54,0,0,0,.64.62,2.8,2.8,0,0,0,.59-0.08v1.61A4.76,4.76,0,0,1,36.24,36.94Z" transform="translate(-1 -0.46)"/><path class="cls-1" d="M38.44,27.2h2.35v1.93H38.44V27.2Zm0,2.83h2.35v6.74H38.44V30Z" transform="translate(-1 -0.46)"/><path class="cls-1" d="M45.22,37a3.31,3.31,0,0,1-3.57-3.5,3.37,3.37,0,0,1,3.57-3.6,3.28,3.28,0,0,1,3.44,3.62c0,0.13,0,.25,0,0.39H44.14v0a1.33,1.33,0,0,0,1.44,1.47,1.59,1.59,0,0,0,1.51-.94l1.51,0.69A3.55,3.55,0,0,1,45.22,37Zm1.07-4.38a1.11,1.11,0,0,0-1.07-1.32c-0.65,0-1,.45-1,1.32h2.1Z" transform="translate(-1 -0.46)"/><path class="cls-1" d="M54.13,27.2h2.4v9.57h-2.4V27.2Z" transform="translate(-1 -0.46)"/><path class="cls-1" d="M61,37a3.31,3.31,0,0,1-3.57-3.5A3.37,3.37,0,0,1,61,29.88a3.28,3.28,0,0,1,3.44,3.62c0,0.13,0,.25,0,0.39H59.9v0a1.33,1.33,0,0,0,1.44,1.47,1.59,1.59,0,0,0,1.51-.94l1.51,0.69A3.55,3.55,0,0,1,61,37Zm1.07-4.38A1.11,1.11,0,0,0,61,31.29c-0.65,0-1,.45-1,1.32h2.1Z" transform="translate(-1 -0.46)"/><path class="cls-1" d="M71.18,33.86a2.75,2.75,0,0,0,2.35,1.34,1.23,1.23,0,0,0,1.39-1.13c0-.89-0.65-1.22-2-1.22h-0.7V31h0.64c1.19,0,1.75-.36,1.75-1.16a1,1,0,0,0-1.14-.94A2.84,2.84,0,0,0,71.31,30L69.84,28.6a5.3,5.3,0,0,1,3.88-1.49c2.24,0,3.54,1,3.54,2.45a2.24,2.24,0,0,1-1.77,2.17c1.46,0.43,2.19,1.19,2.19,2.36,0,1.76-1.49,2.94-4,2.94a4.61,4.61,0,0,1-4.21-1.95Z" transform="translate(-1 -0.46)"/><path class="cls-1" d="M82.41,27.09c2.4,0,4.11,1.95,4.11,5s-1.71,5-4.11,5-4.11-1.95-4.11-5S80,27.09,82.41,27.09Zm0,8c1,0,1.31-1,1.31-3.06s-0.35-3.08-1.31-3.08S81.09,30,81.09,32,81.46,35.09,82.41,35.09Z" transform="translate(-1 -0.46)"/><path class="cls-1" d="M97.92,36.77H95.6a1.64,1.64,0,0,1-.09-0.58,3.3,3.3,0,0,1-2.08.73A1.79,1.79,0,0,1,91.55,35c0-1.57,1.36-2.46,4-2.47V31.94a0.65,0.65,0,0,0-.78-0.6,0.89,0.89,0,0,0-.9.8l-2-.43c0.38-1.21,1.33-1.77,2.94-1.77,2,0,3,.64,3,2v4.12A2.57,2.57,0,0,0,97.92,36.77ZM95.51,33.7c-1.08.06-1.65,0.43-1.65,1a0.66,0.66,0,0,0,.72.74,1.54,1.54,0,0,0,.93-0.34V33.7Z" transform="translate(-1 -0.46)"/><path class="cls-1" d="M102.13,29.88a3.55,3.55,0,1,1-3.54,3.55A3.42,3.42,0,0,1,102.13,29.88Zm0,5.5c0.75,0,1.07-.65,1.07-2s-0.31-2-1.07-2-1.07.64-1.07,2S101.37,35.38,102.13,35.38Z" transform="translate(-1 -0.46)"/><path class="cls-1" d="M112.88,36.07a2.26,2.26,0,0,0,.1.7h-2.42V35.86a3.69,3.69,0,0,1-2.35,1.07c-1.27,0-1.73-.73-1.73-2.24V30h2.32V34.1c0,0.82.1,1.21,0.67,1.21a1.9,1.9,0,0,0,1.09-.57V30h2.32v6ZM109,27.69h1.46l1.22,1.73h-0.88l-1.07-.9-1.07.9h-0.88Z" transform="translate(-1 -0.46)"/><path class="cls-1" d="M116.65,36.94c-1.49,0-2.22-.57-2.22-1.76V31.51h-0.93V30h1l0.18-2.39h2V30H118v1.48h-1.23v3.1a0.54,0.54,0,0,0,.64.62,2.8,2.8,0,0,0,.59-0.08v1.61A4.76,4.76,0,0,1,116.65,36.94Z" transform="translate(-1 -0.46)"/></svg>