<svg id="Calque_1" data-name="Calque 1" xmlns="http://www.w3.org/2000/svg" viewBox="0 0 202.75 54.5"><defs><style>.cls-1{fill:#ffe807;}</style></defs><title>mort-a-sarajevo-realisateur</title><path class="cls-1" d="M77.93,1.13v9.34c0,2.65,0,3-.46,3.57a3.37,3.37,0,0,1-2.88,1.3,3.29,3.29,0,0,1-3-1.51c-0.29-.55-0.34-0.92-0.34-3.36V1.13h2.14v9.38a8,8,0,0,0,.08,2.14,1.11,1.11,0,0,0,1.11.86,1.08,1.08,0,0,0,1.11-1,9.25,9.25,0,0,0,.06-2V1.13h2.14Z" transform="translate(-0.99 -1.13)"/><path class="cls-1" d="M78.94,1.13h2.33l2.6,9.24V1.13H86v14H83.6L81.08,6.67v8.46H78.94v-14Z" transform="translate(-0.99 -1.13)"/><path class="cls-1" d="M95.82,3H92.15V6.9h3.38V8.79H92.15v6.34H90v-14h5.82V3Z" transform="translate(-0.99 -1.13)"/><path class="cls-1" d="M98.72,15.13H96.58v-14h2.14v14Z" transform="translate(-0.99 -1.13)"/><path class="cls-1" d="M101.85,13.24h3.67v1.89H99.71v-14h2.14V13.24Z" transform="translate(-0.99 -1.13)"/><path class="cls-1" d="M106.3,1.13H110l1.15,7.56,1-7.56h3.74v14H113.8V3.25l-2,11.88h-1.28l-2.1-11.88V15.13H106.3v-14Z" transform="translate(-0.99 -1.13)"/><path class="cls-1" d="M122.41,1.13c1.91,0,2.69.23,3.3,1s0.84,2.1.84,6c0,4.18-.21,5.42-1,6.21-0.63.61-1.39,0.8-3.13,0.8h-2.48v-14h2.48Zm-0.34,12.11h0.44c1.83,0,1.89-.19,1.89-5,0-5.14,0-5.23-1.76-5.23h-0.57V13.24Z" transform="translate(-0.99 -1.13)"/><path class="cls-1" d="M133.24,3h-3.67V6.9h3.38V8.79h-3.38v4.45h3.67v1.89h-5.82v-14h5.82V3Z" transform="translate(-0.99 -1.13)"/><path class="cls-1" d="M6.89,21.78c4.55,0,6.4.55,7.85,2.4s2,5,2,14.25c0,10-.5,12.9-2.4,14.8-1.5,1.45-3.3,1.9-7.45,1.9H1V21.78h5.9ZM6.09,50.63H7.14c4.35,0,4.5-.45,4.5-11.9,0-12.25,0-12.45-4.2-12.45H6.09V50.63Z" transform="translate(-0.99 -1.13)"/><path class="cls-1" d="M24.43,46.38l-1.2,8.75H17.88l5.5-33.35h7.3l5.5,33.35H30.83l-1.2-8.75h-5.2ZM27,28l-2,13.9H29Z" transform="translate(-0.99 -1.13)"/><path class="cls-1" d="M38.18,21.78h5.55l6.2,22v-22H55V55.13H49.29L43.28,35V55.13h-5.1V21.78Z" transform="translate(-0.99 -1.13)"/><path class="cls-1" d="M62.78,55.13h-5.1V21.78h5.1V55.13Z" transform="translate(-0.99 -1.13)"/><path class="cls-1" d="M70,43.58a37.12,37.12,0,0,0,.25,5.2c0.35,1.6,1.25,2.5,2.6,2.5,1.65,0,2.75-1.4,2.75-3.5,0-2.5-1-4.2-4.55-7.65a27.54,27.54,0,0,1-4.45-5A10.49,10.49,0,0,1,65,29.43c0-5.1,3-8.15,8-8.15,3.05,0,5.55,1.25,6.55,3.3,0.7,1.5.8,2.35,0.85,8h-5.1c0-4.2,0-4.45-.3-5.25a2.25,2.25,0,0,0-2.25-1.65c-1.6,0-2.7,1.4-2.7,3.4,0,2.2.9,3.6,4.6,7.25,4.75,4.75,6.15,7.25,6.15,11.1,0,5.3-2.85,8.25-7.9,8.25-4,0-6.5-1.65-7.45-4.9a28.52,28.52,0,0,1-.55-7.15H70Z" transform="translate(-0.99 -1.13)"/><path class="cls-1" d="M100.83,55.13h-5.1V26.28H90.08v-4.5h16.45v4.5h-5.7V55.13Z" transform="translate(-0.99 -1.13)"/><path class="cls-1" d="M112.28,46.38l-1.2,8.75h-5.35l5.5-33.35h7.3L124,55.13h-5.35l-1.2-8.75h-5.2Zm2.6-18.4-2,13.9h3.9Z" transform="translate(-0.99 -1.13)"/><path class="cls-1" d="M126,21.78h5.55l6.2,22v-22h5.1V55.13h-5.75l-6-20.15V55.13H126V21.78Z" transform="translate(-0.99 -1.13)"/><path class="cls-1" d="M160,24.88c0.9,1.8,1.1,4.15,1.1,13.55,0,10.45-.2,12.4-1.55,14.3s-3.5,2.9-6.35,2.9c-3.25,0-5.6-1.25-6.8-3.6-0.9-1.8-1.1-4.1-1.1-13.85,0-10.1.2-12.15,1.5-14.05s3.5-2.85,6.5-2.85S158.83,22.58,160,24.88Zm-9.45,3.35c-0.1,1-.15,4-0.15,10.3,0,7,.05,9.55.2,10.5a2.49,2.49,0,0,0,2.55,2.25c1.6,0,2.45-.85,2.7-2.6,0.1-.85.15-4,0.15-9.35,0-8.35-.05-10.45-0.2-11.45a2.51,2.51,0,0,0-2.6-2.25C151.68,25.63,150.78,26.53,150.53,28.23Z" transform="translate(-0.99 -1.13)"/><path class="cls-1" d="M162.43,21.78h5.35l2.7,25.5,2.65-25.5h5.3L174,55.13h-7Z" transform="translate(-0.99 -1.13)"/><path class="cls-1" d="M185.58,55.13h-5.1V21.78h5.1V55.13Z" transform="translate(-0.99 -1.13)"/><path class="cls-1" d="M198.58,32.63c0-3.35-.1-4.55-0.4-5.5a2.29,2.29,0,0,0-2.3-1.5c-1.5,0-2.35.85-2.65,2.6-0.1.8-.15,3-0.15,7.1,0,3.55.05,11.6,0.1,12.6,0,2.15,1,3.35,2.7,3.35a2.58,2.58,0,0,0,2.6-2.6c0.1-.55.1-0.6,0.15-5.4h5.1c-0.1,5.4-.15,5.9-0.65,7.7-0.8,2.85-3.55,4.65-7.2,4.65-3,0-5.5-1.25-6.7-3.3-1-1.75-1.2-4.15-1.2-14.55,0-9.8.25-12,1.65-13.85a7.72,7.72,0,0,1,6.25-2.65c3.65,0,6.4,1.8,7.2,4.7,0.45,1.6.55,2.4,0.6,6.65h-5.1Zm2.25-17.5-3.35,5.35h-3l0.75-5.35h5.6Z" transform="translate(-0.99 -1.13)"/></svg>