<svg id="Calque_1" data-name="Calque 1" xmlns="http://www.w3.org/2000/svg" viewBox="0 0 181.5 54.71"><defs><style>.cls-1{fill:#ffe807;}</style></defs><title>mort-a-sarajevo-date-sortie</title><path class="cls-1" d="M77.1,9.78a15.46,15.46,0,0,0,.1,2.18,1.13,1.13,0,0,0,1.09,1,1.27,1.27,0,0,0,1.16-1.47c0-1.05-.42-1.76-1.91-3.21a11.56,11.56,0,0,1-1.87-2.1A4.4,4.4,0,0,1,75,3.84,3.11,3.11,0,0,1,78.36.41,2.93,2.93,0,0,1,81.11,1.8c0.29,0.63.34,1,.36,3.34H79.33a6.14,6.14,0,0,0-.12-2.21,1,1,0,0,0-.95-0.69,1.25,1.25,0,0,0-1.13,1.43c0,0.92.38,1.51,1.93,3,2,2,2.58,3,2.58,4.66,0,2.22-1.2,3.46-3.32,3.46a2.87,2.87,0,0,1-3.13-2.06,12,12,0,0,1-.23-3H77.1Z" transform="translate(-11.6 -0.41)"/><path class="cls-1" d="M88.55,1.93C88.93,2.68,89,3.67,89,7.62c0,4.39-.08,5.21-0.65,6a3,3,0,0,1-2.67,1.22,3,3,0,0,1-2.86-1.51c-0.38-.76-0.46-1.72-0.46-5.82s0.08-5.1.63-5.9A3.11,3.11,0,0,1,85.73.41,3,3,0,0,1,88.55,1.93Zm-4,1.41c0,0.4-.06,1.7-0.06,4.33,0,2.94,0,4,.08,4.41a1,1,0,0,0,1.07.94,1.07,1.07,0,0,0,1.13-1.09c0-.36.06-1.68,0.06-3.93,0-3.51,0-4.39-.08-4.81a1.05,1.05,0,0,0-1.09-.94A1.09,1.09,0,0,0,84.58,3.33Z" transform="translate(-11.6 -0.41)"/><path class="cls-1" d="M89.91,0.63h2.77A4.62,4.62,0,0,1,95,1c0.95,0.46,1.34,1.43,1.34,3.23S96,6.65,95,7.13a1.93,1.93,0,0,1,1.3,2v4.16a2.5,2.5,0,0,0,.25,1.32H94.32a4.39,4.39,0,0,1-.13-1.11V10.6c0-2-.29-2.37-1.62-2.37H92.06v6.4H89.91v-14Zm2.67,5.86c1.28,0,1.62-.42,1.62-2s-0.27-2-1.72-2H92.06v4h0.53Z" transform="translate(-11.6 -0.41)"/><path class="cls-1" d="M101.53,14.63H99.38V2.51H97V0.63h6.91V2.51h-2.39V14.63Z" transform="translate(-11.6 -0.41)"/><path class="cls-1" d="M106.82,14.63h-2.14v-14h2.14v14Z" transform="translate(-11.6 -0.41)"/><path class="cls-1" d="M113.62,2.51h-3.67V6.4h3.38V8.29h-3.38v4.45h3.67v1.89h-5.82v-14h5.82V2.51Z" transform="translate(-11.6 -0.41)"/><path class="cls-1" d="M119.48,12.74h3.67v1.89h-5.82v-14h2.14V12.74Z" transform="translate(-11.6 -0.41)"/><path class="cls-1" d="M129.75,2.51h-3.67V6.4h3.38V8.29h-3.38v4.45h3.67v1.89h-5.82v-14h5.82V2.51Z" transform="translate(-11.6 -0.41)"/><path class="cls-1" d="M26.46,54.63H11.6c-0.15-7,1.8-12.25,6.55-17.85,3.6-4.25,4.25-5.45,4.25-8,0-2.25-1-3.65-2.65-3.65-2,0-2.75,1.6-2.75,5.5a5.34,5.34,0,0,0,0,.75H11.9v-1.2c0-3.5.65-5.9,2-7.3a8.42,8.42,0,0,1,6.1-2.1c4.85,0,7.5,2.8,7.5,7.9A13.45,13.45,0,0,1,25.91,35a36.17,36.17,0,0,1-4.15,5.5c-3.45,4.25-4.65,6.65-4.75,9.6h9.45v4.5Z" transform="translate(-11.6 -0.41)"/><path class="cls-1" d="M33.7,43.38v3.15c0,3,.8,4.25,2.75,4.25a2.71,2.71,0,0,0,2.6-1.55,8.41,8.41,0,0,0,.35-3.1c0-3.6-.15-4.8-0.65-5.6-0.6-1-1.85-1.5-3.8-1.5-0.25,0-.6,0-1.25,0V34.83c4.4-.1,5.2-0.85,5.2-4.75,0-3.7-.7-5-2.65-5a2.17,2.17,0,0,0-2.35,2.15c-0.05.5-.1,0.85-0.2,3.75H28.6l0-1.1c0.15-3.75.4-5,1.35-6.4,1.15-1.75,3.4-2.75,6.15-2.75,5.25,0,7.85,3,7.85,9.15,0,3.75-.85,5.6-3.15,6.8,2.8,1.05,3.65,2.7,3.65,7.25a26.12,26.12,0,0,1-.6,6.65c-0.8,2.8-3.65,4.5-7.45,4.5-2.8,0-5.15-.85-6.4-2.35-1.15-1.35-1.45-2.65-1.45-6.25V43.38h5.1Z" transform="translate(-11.6 -0.41)"/><path class="cls-1" d="M60,45.88l-1.2,8.75H53.4l5.5-33.35h7.3l5.5,33.35H66.35l-1.2-8.75H60Zm2.6-18.4-2,13.9h3.9Z" transform="translate(-11.6 -0.41)"/><path class="cls-1" d="M87.7,24.38c0.9,1.8,1.1,4.15,1.1,13.55,0,10.45-.2,12.4-1.55,14.3s-3.5,2.9-6.35,2.9c-3.25,0-5.6-1.25-6.8-3.6-0.9-1.8-1.1-4.1-1.1-13.85,0-10.1.2-12.15,1.5-14.05S78,20.78,81,20.78C84.15,20.78,86.55,22.08,87.7,24.38Zm-9.45,3.35c-0.1,1-.15,4-0.15,10.3,0,7,0,9.55.2,10.5a2.5,2.5,0,0,0,2.55,2.25c1.6,0,2.45-.85,2.7-2.6,0.1-.85.15-4,0.15-9.35,0-8.35,0-10.45-.2-11.45a2.51,2.51,0,0,0-2.6-2.25C79.4,25.13,78.5,26,78.25,27.73Z" transform="translate(-11.6 -0.41)"/><path class="cls-1" d="M107,21.28V43.53c0,6.3-.1,7.05-1.1,8.5-1.4,2-3.85,3.1-6.85,3.1-3.2,0-5.85-1.35-7.1-3.6-0.7-1.3-.8-2.2-0.8-8V21.28h5.1V43.63c0,4.25,0,4.35.2,5.1a2.64,2.64,0,0,0,2.65,2,2.57,2.57,0,0,0,2.65-2.35c0.15-.7.15-0.75,0.15-4.8V21.28H107Zm-5.85-6.65L104.5,20h-3.9l-1.55-2.8L97.5,20H93.6L97,14.63h4.2Z" transform="translate(-11.6 -0.41)"/><path class="cls-1" d="M119.8,54.63h-5.1V25.78h-5.65v-4.5H125.5v4.5h-5.7V54.63Z" transform="translate(-11.6 -0.41)"/><path class="cls-1" d="M149.1,54.63H134.25c-0.15-7,1.8-12.25,6.55-17.85,3.6-4.25,4.25-5.45,4.25-8,0-2.25-1-3.65-2.65-3.65-2,0-2.75,1.6-2.75,5.5a5.34,5.34,0,0,0,0,.75h-5.15v-1.2c0-3.5.65-5.9,2-7.3a8.42,8.42,0,0,1,6.1-2.1c4.85,0,7.5,2.8,7.5,7.9a13.45,13.45,0,0,1-1.6,6.35,36.17,36.17,0,0,1-4.15,5.5c-3.45,4.25-4.65,6.65-4.75,9.6h9.45v4.5Z" transform="translate(-11.6 -0.41)"/><path class="cls-1" d="M166.65,25.73c0.5,1.75.7,5,.7,12.2,0,8.3-.2,11.15-1,13.1-1.1,2.7-3.5,4.1-7,4.1-3.85,0-6.3-1.65-7.3-5-0.5-1.75-.7-5-0.7-12.4,0-8.1.25-11,1-12.9,1.15-2.75,3.5-4.1,7.1-4.1S165.65,22.48,166.65,25.73Zm-10,2.2c-0.15.85-.2,4.55-0.2,10,0,6.7.1,9.6,0.3,10.6a2.51,2.51,0,0,0,2.6,2.3c1.55,0,2.45-.9,2.7-2.8,0.15-.85.2-4.55,0.2-10.05,0-6.6-.1-9.55-0.25-10.5a2.59,2.59,0,0,0-2.65-2.3C157.8,25.13,156.9,26,156.65,27.93Z" transform="translate(-11.6 -0.41)"/><path class="cls-1" d="M176.7,54.63h-5.1V27.33h-3.15V23.48c1.85-.1,3.3-1,3.5-2.2h4.75V54.63Z" transform="translate(-11.6 -0.41)"/><path class="cls-1" d="M193.1,26.43a90,90,0,0,0-5.9,28.2h-5.55c0.15-7.9,2.65-18.7,6.6-28.85H178.4v-4.5h14.7v5.15Z" transform="translate(-11.6 -0.41)"/></svg>